<?xml version="1.0" encoding="UTF-8" standalone="no"?>
<!-- Creator: CorelDRAW -->

<svg
   xmlns:dc="http://purl.org/dc/elements/1.1/"
   xmlns:cc="http://creativecommons.org/ns#"
   xmlns:rdf="http://www.w3.org/1999/02/22-rdf-syntax-ns#"
   xmlns:svg="http://www.w3.org/2000/svg"
   xmlns="http://www.w3.org/2000/svg"
   xmlns:xlink="http://www.w3.org/1999/xlink"
   xmlns:sodipodi="http://sodipodi.sourceforge.net/DTD/sodipodi-0.dtd"
   xmlns:inkscape="http://www.inkscape.org/namespaces/inkscape"
   xml:space="preserve"
   width="50mm"
   height="50mm"
   shape-rendering="geometricPrecision"
   text-rendering="geometricPrecision"
   image-rendering="optimizeQuality"
   fill-rule="evenodd"
   clip-rule="evenodd"
   viewBox="0 0 50 50"
   id="svg2"
   sodipodi:version="0.32"
   inkscape:version="0.91+devel r"
   sodipodi:docname="bb.svg"
   inkscape:output_extension="org.inkscape.output.svg.inkscape"
   sodipodi:modified="true"
   version="1.1"><sodipodi:namedview
     inkscape:window-height="1025"
     inkscape:window-width="1920"
     inkscape:pageshadow="2"
     inkscape:pageopacity="0.0"
     guidetolerance="10.0"
     gridtolerance="10.0"
     objecttolerance="10.0"
     borderopacity="1.0"
     bordercolor="#666666"
     pagecolor="#ffffff"
     id="base"
     inkscape:zoom="0.5743222"
     inkscape:cx="306.10318"
     inkscape:cy="16.484925"
     inkscape:window-x="0"
     inkscape:window-y="27"
     inkscape:current-layer="svg2"
     showgrid="true"
     inkscape:window-maximized="1" /><metadata
     id="metadata13"><rdf:RDF><cc:Work
         rdf:about=""><dc:format>image/svg+xml</dc:format><dc:type
           rdf:resource="http://purl.org/dc/dcmitype/StillImage" /></cc:Work></rdf:RDF></metadata><defs
     id="defs11"><linearGradient
       id="linearGradient2192"
       inkscape:collect="always"><stop
         id="stop2194"
         offset="0"
         style="stop-color:#ffffff;stop-opacity:1;" /><stop
         id="stop2196"
         offset="1"
         style="stop-color:#b7b7b7;stop-opacity:1" /></linearGradient><metadata
       id="CorelCorpID_0Corel-Layer" /><linearGradient
       gradientUnits="userSpaceOnUse"
       y2="37.100735"
       x2="45.190559"
       y1="37.100735"
       x1="21.094196"
       id="linearGradient2198"
       xlink:href="#linearGradient2192"
       inkscape:collect="always" /><linearGradient
       gradientUnits="userSpaceOnUse"
       y2="26.384396"
       x2="3.4241645"
       y1="26.384396"
       x1="28.033161"
       id="linearGradient4150"
       xlink:href="#linearGradient2192-275"
       inkscape:collect="always"
       gradientTransform="matrix(0.96992702,0,0,0.9698971,0.75183324,0.79006105)" /><linearGradient
       gradientTransform="translate(57.355653,-8.8682435)"
       y2="37.100735"
       x2="45.190559"
       y1="37.100735"
       x1="21.094196"
       gradientUnits="userSpaceOnUse"
       id="linearGradient4154"
       xlink:href="#linearGradient2192"
       inkscape:collect="always" /><linearGradient
       id="linearGradient2192-275"
       inkscape:collect="always"><stop
         id="stop4171"
         offset="0"
         style="stop-color:#000000;stop-opacity:1;" /><stop
         id="stop4173"
         offset="1"
         style="stop-color:#484848;stop-opacity:1" /></linearGradient></defs><path
     sodipodi:nodetypes="ccccccccccccccccccccccccccccccccccccccccc"
     inkscape:connector-curvature="0"
     id="path4144"
     d="m 22.675834,7.48921 c -1.500168,1.6988126 -1.083465,4.20024 0.829527,5.22259 -1.614314,1.857062 -3.673257,3.62816 -5.822215,5.247149 -1.830509,1.39726 -3.071439,3.735167 -3.16974,6.298683 -0.08342,3.300944 1.741124,5.735434 4.762629,7.267519 l -2.504615,6.207966 c 1.184049,0.444396 2.383636,0.784744 3.647907,1.021462 0.428515,0.08431 0.857525,0.153273 1.287641,0.201987 -1.124609,1.267029 -3.0637,1.830892 -4.44485,1.832917 -2.17376,-0.200499 -4.467609,-0.662931 -6.482828,-0.608466 -1.317336,0.02951 -2.6286256,0.245772 -3.9195673,0.828498 -0.136669,0.0631 -0.2782012,0.130883 -0.4200258,0.204992 -0.027169,0.01478 -0.052868,0.03088 -0.079695,0.04611 -0.3841391,0.207787 -0.7662637,0.46465 -1.0605886,0.824991 l 2.3321936,3.826722 c 0.00513,-0.005 0.010881,-0.0091 0.016039,-0.01403 l 0.00852,0.01403 c 1.1469486,-0.79443 2.5547451,-1.021076 4.0348521,-0.983871 2.366453,0.188287 4.98218,1.023095 6.550491,0.983871 3.135895,0.123672 6.104714,-1.388248 6.758501,-4.229193 0.614734,3.01232 4.176566,4.496674 6.758498,4.229193 1.568312,0.03922 4.184039,-0.795584 6.550493,-0.983871 1.480105,-0.03721 2.887905,0.189441 4.034851,0.983871 l 0.0085,-0.01403 c 0.0051,0.0049 0.01091,0.009 0.01604,0.01403 l 2.332194,-3.826722 c -0.295878,-0.36224 -0.680412,-0.620171 -1.066604,-0.828499 -0.02389,-0.01352 -0.047,-0.02743 -0.07117,-0.0406 -0.142753,-0.07468 -0.284973,-0.143483 -0.42253,-0.206998 -1.291109,-0.582802 -2.602565,-0.799032 -3.92007,-0.828499 -2.32893,-0.09673 -4.34671,0.465827 -6.482327,0.608466 -1.982866,-0.22943 -3.311714,-0.550039 -4.444851,-1.832917 0.429429,-0.04864 0.857307,-0.117359 1.285136,-0.201486 l 0.0025,-5.13e-4 c 1.264271,-0.236718 2.463856,-0.577067 3.647905,-1.021463 l -2.504616,-6.207966 c 3.021506,-1.532085 4.846048,-3.966574 4.76263,-7.267518 -0.0983,-2.563517 -1.339232,-4.901425 -3.169741,-6.298685 -2.148957,-1.618989 -4.2079,-3.390086 -5.822214,-5.247148 1.930557,-1.218275 2.391925,-3.5824359 0.829527,-5.2225896 -1.354426,-1.2577759 -3.39775,-1.2315501 -4.648351,0 z"
     style="fill:url(#linearGradient4150);fill-opacity:1;stroke:#000000;stroke-width:1;stroke-opacity:1" /><path
     d="M 24.0856,23.7048 L 24.0856,25.813 C 24.0856,26.4226 24.3904,26.7274 25,26.7274 L 25,26.7274 C 25.6096,26.7274 25.9144,26.4226 25.9144,25.813 L 25.9144,23.6794 L 28.1496,23.6794 C 28.7253,23.6794 29.0217,23.3831 29.0217,22.782 L 29.0217,22.782 C 29.0217,22.1893 28.7253,21.893 28.1496,21.893 L 25.9144,21.893 L 25.9144,19.6578 C 25.9144,19.0482 25.6096,18.7434 25,18.7434 L 25,18.7434 C 24.3904,18.7434 24.0856,19.0482 24.0856,19.6578 L 24.0856,21.893 L 21.9012,21.893 C 21.317,21.893 21.0291,22.1893 21.0291,22.782 L 21.0291,22.782 C 21.0291,23.3831 21.317,23.6794 21.9012,23.6794 L 24.0856,23.7048 z M 31.5955,37.4462 L 30.5541,34.9147 C 28.8693,34.5506 27.0151,34.3728 25,34.3728 C 23.0019,34.3728 21.1646,34.5506 19.4967,34.9147 L 18.4553,37.4208 C 20.5042,36.9044 22.6886,36.6504 25,36.6504 C 27.286,36.6504 29.4789,36.9128 31.5955,37.4462 z M 29.5127,32.3324 L 28.7931,30.5967 L 28.7931,29.9278 C 27.54,29.75 26.27,29.6569 25,29.6569 C 23.7639,29.6569 22.5023,29.75 21.2323,29.9278 L 21.2069,30.5967 L 20.5381,32.3324 C 21.9435,32.0868 23.4252,31.9598 25,31.9598 C 26.5917,31.9598 28.0903,32.0868 29.5127,32.3324 L 29.5127,32.3324 z M 28.6491,41.7134 C 27.9887,41.2139 27.3199,40.4265 26.6595,39.3512 L 25.8721,39.3512 C 25.8721,40.164 26.0583,40.9514 26.4393,41.7134 L 28.6491,41.7134 z M 23.5353,41.7134 C 23.9163,40.9006 24.111,40.1132 24.111,39.3512 L 23.3151,39.3512 C 22.6717,40.4096 22.0028,41.197 21.3001,41.7134 L 23.5353,41.7134 z "
     id="path8"
     style="fill:url(#linearGradient2198);fill-opacity:1" /></svg>