<?xml version="1.0" encoding="UTF-8" standalone="no"?>
<!-- Creator: CorelDRAW -->

<svg
   xmlns:dc="http://purl.org/dc/elements/1.1/"
   xmlns:cc="http://creativecommons.org/ns#"
   xmlns:rdf="http://www.w3.org/1999/02/22-rdf-syntax-ns#"
   xmlns:svg="http://www.w3.org/2000/svg"
   xmlns="http://www.w3.org/2000/svg"
   xmlns:xlink="http://www.w3.org/1999/xlink"
   xmlns:sodipodi="http://sodipodi.sourceforge.net/DTD/sodipodi-0.dtd"
   xmlns:inkscape="http://www.inkscape.org/namespaces/inkscape"
   xml:space="preserve"
   width="50mm"
   height="50mm"
   shape-rendering="geometricPrecision"
   text-rendering="geometricPrecision"
   image-rendering="optimizeQuality"
   fill-rule="evenodd"
   clip-rule="evenodd"
   viewBox="0 0 50 50"
   id="svg2"
   sodipodi:version="0.32"
   inkscape:version="0.91+devel r"
   sodipodi:docname="bk.svg"
   inkscape:output_extension="org.inkscape.output.svg.inkscape"
   sodipodi:modified="true"
   version="1.1"><sodipodi:namedview
     inkscape:window-height="1025"
     inkscape:window-width="1920"
     inkscape:pageshadow="2"
     inkscape:pageopacity="0.0"
     guidetolerance="10.0"
     gridtolerance="10.0"
     objecttolerance="10.0"
     borderopacity="1.0"
     bordercolor="#666666"
     pagecolor="#ffffff"
     id="base"
     inkscape:zoom="0.81221425"
     inkscape:cx="93.142043"
     inkscape:cy="-6.9268206"
     inkscape:window-x="0"
     inkscape:window-y="27"
     inkscape:current-layer="svg2"
     showgrid="true"
     inkscape:window-maximized="1" /><metadata
     id="metadata15"><rdf:RDF><cc:Work
         rdf:about=""><dc:format>image/svg+xml</dc:format><dc:type
           rdf:resource="http://purl.org/dc/dcmitype/StillImage" /></cc:Work></rdf:RDF></metadata><defs
     id="defs13"><linearGradient
       id="linearGradient2167"
       inkscape:collect="always"><stop
         id="stop2169"
         offset="0"
         style="stop-color:#ffffff;stop-opacity:1;" /><stop
         id="stop2171"
         offset="1"
         style="stop-color:#b7b7b7;stop-opacity:1" /></linearGradient><linearGradient
       gradientUnits="userSpaceOnUse"
       y2="22.673384"
       x2="45.107132"
       y1="22.673384"
       x1="19.498245"
       id="linearGradient2173"
       xlink:href="#linearGradient2167"
       inkscape:collect="always" /><linearGradient
       gradientTransform="translate(-46.094416)"
       y2="22.673384"
       x2="45.107132"
       y1="22.673384"
       x1="19.498245"
       gradientUnits="userSpaceOnUse"
       id="linearGradient4146"
       xlink:href="#linearGradient2167"
       inkscape:collect="always" /><linearGradient
       id="linearGradient2167-502"
       inkscape:collect="always"><stop
         id="stop4158"
         offset="0"
         style="stop-color:#000000;stop-opacity:1;" /><stop
         id="stop4160"
         offset="1"
         style="stop-color:#484848;stop-opacity:1" /></linearGradient><linearGradient
       inkscape:collect="always"
       xlink:href="#linearGradient2167-502"
       id="linearGradient4188"
       x1="24.65111"
       y1="38.227329"
       x2="3.6398721"
       y2="38.227329"
       gradientUnits="userSpaceOnUse"
       gradientTransform="matrix(0.97661037,0,0,0.97647969,0.60162243,0.6884182)" /><linearGradient
       inkscape:collect="always"
       xlink:href="#linearGradient2167-502"
       id="linearGradient4200"
       x1="24.563923"
       y1="9.4590139"
       x2="20.993591"
       y2="9.4590139"
       gradientUnits="userSpaceOnUse" /></defs><path
     sodipodi:nodetypes="czccsssscsccscsssccc"
     d="m 25.8213,12.0224 c 0,0 -0.385338,-0.07787 -0.88055,-0.07787 -0.495212,0 -0.88055,0.07787 -0.88055,0.07787 l 0,-3.2512 -2.0659,0 c -0.5588,0 -0.8382,-0.2709 -0.8382,-0.8212 l 0,-0.0254 c 0,-0.5419 0.2794,-0.8128 0.8382,-0.8128 l 2.0659,0 0,-2.1082 c 0,-0.5842 0.2963,-0.8721 0.889,-0.8721 l 0,0 c 0.5757,0 0.8721,0.2879 0.8721,0.8721 l 0,2.1082 2.1336,0 c 0.5418,0 0.8128,0.2709 0.8128,0.8128 l 0,0.0254 c 0,0.5503 -0.271,0.8212 -0.8128,0.8212 l -2.1167,0.0254 z"
     id="path6-8"
     inkscape:connector-curvature="0"
     style="fill:url(#linearGradient4200);fill-opacity:1;stroke-width:1" /><path
     d="m 11.373635,37.544863 -0.793789,-4.530671 c -0.01651,0 -0.04131,-0.033 -0.07442,-0.09921 C 10.422709,32.799269 10.191253,32.650454 9.8108629,32.468536 9.4387743,32.278415 8.992268,31.964281 8.49615,31.509535 7.78508,30.914273 7.2310489,30.426521 6.8341544,30.054483 6.43726,29.690646 6.0816762,29.285602 5.7591994,28.847358 4.7752645,27.491516 4.2212334,25.854546 4.1138063,23.928244 c -0.1654378,-1.851991 0.5870405,-3.703885 2.249036,-5.547576 1.6785002,-1.835391 3.9524397,-2.703482 6.8051187,-2.587671 1.066654,0.06611 2.323454,0.322433 3.753895,0.777082 0.471312,0.190218 0.950925,0.380339 1.447044,0.562257 0.487816,0.190121 0.975731,0.380241 1.463548,0.57046 0.25636,0.132215 0.487817,0.264528 0.67806,0.388541 -0.08272,-0.338936 -0.124029,-0.67797 -0.124029,-1.016906 0,-1.256632 0.446506,-2.331443 1.347722,-3.224336 0.893013,-0.884593 1.976269,-1.33934 3.233069,-1.355842 1.2568,0 2.331755,0.454649 3.224767,1.347542 0.884712,0.892893 1.331218,1.967704 1.331218,3.207833 0,0.256326 -0.03301,0.595262 -0.09922,1.016906 0.223253,-0.140515 0.446507,-0.264528 0.653255,-0.363738 0.744177,-0.322434 1.719908,-0.702773 2.935398,-1.132717 1.38913,-0.471249 2.637629,-0.735777 3.753895,-0.801885 2.852679,-0.132313 5.118317,0.735777 6.780312,2.587671 1.628889,1.843692 2.389668,3.695585 2.273842,5.547577 -0.124029,1.926301 -0.686264,3.563272 -1.670199,4.919114 -0.322476,0.438244 -0.686361,0.843288 -1.091459,1.223626 -0.396895,0.380339 -0.942625,0.859791 -1.620685,1.43855 -0.529225,0.454747 -0.983935,0.77718 -1.356024,0.959001 -0.372088,0.181918 -0.587138,0.339034 -0.653254,0.446447 -0.01651,0.0331 -0.03311,0.0579 -0.04961,0.07441 -0.01651,0.0166 -0.02481,0.0331 -0.02481,0.0496 l -0.777284,4.555473 1.60418,5.977423 c -0.810391,0.727478 -2.621222,1.32274 -5.42429,1.793989 -2.81127,0.471249 -6.060843,0.702772 -9.740418,0.702772 -3.745692,0 -7.044877,-0.248026 -9.881051,-0.735777 -2.844378,-0.496052 -4.630403,-1.116117 -5.3580752,-1.851992 l 1.5958792,-5.911217 z"
     id="path8"
     inkscape:connector-curvature="0"
     style="fill:url(#linearGradient4188);fill-opacity:1;stroke:#000000;stroke-width:1.00012493;stroke-miterlimit:4;stroke-dasharray:none;stroke-opacity:1" /><path
     d="m 24.9492,20.6754 c -0.0339,-0.1609 -0.0762,-0.3048 -0.127,-0.4234 -0.0931,-0.3302 -0.1778,-0.5672 -0.2455,-0.7196 -0.0508,-0.1101 -0.1186,-0.254 -0.1948,-0.4318 -0.0846,-0.1694 -0.1693,-0.3556 -0.254,-0.5588 -0.0508,-0.1186 -0.11,-0.271 -0.1862,-0.4572 -0.0678,-0.1948 -0.1355,-0.3726 -0.1863,-0.5334 -0.0423,-0.1524 -0.0677,-0.3048 -0.0677,-0.4742 0,-0.872 0.4148,-1.3123 1.2615,-1.3123 0.8805,0 1.3123,0.4318 1.3123,1.2869 0,0.2202 -0.0338,0.3726 -0.0931,0.4742 -0.2371,0.6265 -0.3556,0.9652 -0.3725,1.016 -0.254,0.4995 -0.4064,0.8212 -0.4742,0.9652 -0.1185,0.2709 -0.1947,0.508 -0.2201,0.7196 -0.0508,0.1016 -0.0847,0.1863 -0.1016,0.2625 -0.0169,0.0762 -0.0339,0.1355 -0.0508,0.1863 z m -2.7771,8.5598 c -2.0658,0.0338 -3.9539,0.1354 -5.6726,0.3217 -1.7103,0.1778 -3.0311,0.4403 -3.9794,0.7705 -0.491,-0.6181 -1.0668,-1.2277 -1.7187,-1.8542 C 10.141,27.8551 9.5737,27.2709 9.0742,26.729 8.2445,25.8824 7.8381,24.9595 7.8381,23.952 c 0,-1.2446 0.2032,-2.1506 0.618,-2.7263 0.4403,-0.6689 1.1346,-1.1599 2.0574,-1.4817 0.9229,-0.3217 1.8627,-0.4826 2.8025,-0.4826 1.1938,0 2.3283,0.2625 3.4205,0.7959 1.0753,0.5588 1.7865,1.0075 2.1336,1.3377 1.1261,1.143 2.0066,2.3792 2.6332,3.7169 0.2116,0.4995 0.3725,1.1938 0.4826,2.0743 0.11,0.889 0.1693,1.5664 0.1862,2.049 z m 2.7771,-4.318 c 0.1185,-0.4657 0.2117,-0.7874 0.2963,-0.9652 0.1694,-0.6435 0.3556,-1.1938 0.5758,-1.6426 0.0931,-0.2794 0.237,-0.6011 0.4318,-0.9736 0.1862,-0.3726 0.3894,-0.8044 0.6096,-1.2785 0.127,-0.2794 0.2709,-0.6265 0.4148,-1.0329 0.1524,-0.4064 0.3048,-0.8044 0.4488,-1.2023 0.1354,-0.3302 0.2032,-0.6858 0.2032,-1.0668 0,-0.8128 -0.2964,-1.4986 -0.8721,-2.0659 -0.5757,-0.5757 -1.2785,-0.8636 -2.1082,-0.8636 -1.9643,0 -2.9549,0.9906 -2.9549,2.9549 0,0.381 0.0678,0.7366 0.2032,1.0668 0.3641,1.0753 0.6435,1.8203 0.8382,2.2352 0.2202,0.4741 0.4149,0.9059 0.6012,1.2785 0.1778,0.3725 0.3386,0.6942 0.4656,0.9736 0.2202,0.5504 0.398,1.0922 0.5504,1.6426 0.0338,0.0931 0.127,0.4148 0.2963,0.9398 z m -0.889,6.223 c 0,-0.6604 -0.0169,-1.5748 -0.0508,-2.7348 -0.0339,-1.1684 -0.1609,-2.142 -0.3725,-2.921 -0.6774,-2.2098 -1.7018,-3.9962 -3.0819,-5.3509 -0.7112,-0.6943 -1.7949,-1.3462 -3.2681,-1.9389 -1.6849,-0.6604 -3.2851,-0.9906 -4.7922,-0.9906 -2.6077,0 -4.5466,0.9314 -5.7996,2.8025 -0.7112,0.9906 -1.0668,2.2352 -1.0668,3.7169 0,1.6256 0.3979,2.9548 1.1853,3.9962 0.4149,0.5927 1.2107,1.3293 2.3876,2.2098 1.1684,0.8721 2.1675,1.6849 2.9718,2.43 1.4393,-0.3133 3.0649,-0.5842 4.8768,-0.8213 1.8119,-0.2286 4.1487,-0.3641 7.0104,-0.3979 z M 37.8439,42.875 37.1073,39.9455 c -3.2258,-0.7366 -7.2813,-1.1091 -12.1581,-1.1091 -4.826,0 -8.8646,0.3725 -12.1073,1.1091 l -0.7874,2.9549 c 3.1411,-0.9568 7.4422,-1.4394 12.9201,-1.4394 2.6247,0 5.0715,0.1355 7.3152,0.398 2.2521,0.2624 4.1063,0.6011 5.5541,1.016 z M 37.2005,35.4582 C 34.1609,34.62 30.1054,34.1966 25.0508,34.1966 c -5.0969,0 -9.1948,0.4318 -12.3021,1.287 l 0.3726,2.5061 c 3.1242,-0.8128 7.095,-1.2192 11.9295,-1.2192 4.8091,0 8.7291,0.3979 11.7517,1.1938 l 0.398,-2.5061 z M 25.8382,31.1656 c 2.8448,0.0508 5.1816,0.1947 7.0019,0.4233 1.8119,0.2286 3.4544,0.508 4.9107,0.8213 0.9059,-0.8975 1.9135,-1.7442 3.0226,-2.557 1.1091,-0.8128 1.8881,-1.507 2.3368,-2.0828 0.7874,-1.0752 1.1853,-2.413 1.1853,-4.0216 0,-1.4648 -0.3556,-2.7009 -1.0668,-3.6915 -1.27,-1.8711 -3.2173,-2.8025 -5.825,-2.8025 -1.524,0 -3.1073,0.3302 -4.7668,0.9906 -1.507,0.5927 -2.5908,1.2362 -3.2766,1.9304 -1.4054,1.3632 -2.4299,3.1496 -3.0734,5.3594 -0.2455,0.762 -0.381,1.7272 -0.4064,2.9041 -0.0254,1.1769 -0.0423,2.0828 -0.0423,2.7263 z m 1.8119,-1.9304 c 0,-0.4826 0.0592,-1.16 0.1608,-2.049 0.1101,-0.8805 0.2794,-1.5748 0.508,-2.0743 0.6181,-1.3377 1.4902,-2.5739 2.6332,-3.7169 0.3302,-0.3302 1.0414,-0.7789 2.1336,-1.3377 1.0752,-0.5334 2.2267,-0.7959 3.4459,-0.7959 0.9313,0 1.8457,0.1609 2.7686,0.4826 0.9144,0.3218 1.6087,0.8128 2.0659,1.4817 0.4148,0.5588 0.6265,1.4647 0.6265,2.7263 0,0.9906 -0.4064,1.9134 -1.2192,2.777 -0.5249,0.5419 -1.1007,1.0922 -1.7103,1.651 -0.6096,0.5504 -1.2022,1.2023 -1.761,1.9474 -0.9568,-0.3302 -2.2945,-0.5927 -4.0048,-0.7705 -1.7102,-0.1863 -3.5898,-0.2879 -5.6472,-0.3217 z"
     id="path10"
     style="fill:url(#linearGradient2173);fill-opacity:1"
     inkscape:connector-curvature="0" /></svg>