<?xml version="1.0" encoding="UTF-8" standalone="no"?>
<!-- Creator: CorelDRAW -->

<svg
   xmlns:dc="http://purl.org/dc/elements/1.1/"
   xmlns:cc="http://creativecommons.org/ns#"
   xmlns:rdf="http://www.w3.org/1999/02/22-rdf-syntax-ns#"
   xmlns:svg="http://www.w3.org/2000/svg"
   xmlns="http://www.w3.org/2000/svg"
   xmlns:xlink="http://www.w3.org/1999/xlink"
   xmlns:sodipodi="http://sodipodi.sourceforge.net/DTD/sodipodi-0.dtd"
   xmlns:inkscape="http://www.inkscape.org/namespaces/inkscape"
   xml:space="preserve"
   width="50mm"
   height="50mm"
   shape-rendering="geometricPrecision"
   text-rendering="geometricPrecision"
   image-rendering="optimizeQuality"
   fill-rule="evenodd"
   clip-rule="evenodd"
   viewBox="0 0 50 50"
   id="svg2"
   sodipodi:version="0.32"
   inkscape:version="0.91+devel r"
   sodipodi:docname="bn.svg"
   inkscape:output_extension="org.inkscape.output.svg.inkscape"
   sodipodi:modified="true"
   version="1.1"><metadata
     id="metadata13"><rdf:RDF><cc:Work
         rdf:about=""><dc:format>image/svg+xml</dc:format><dc:type
           rdf:resource="http://purl.org/dc/dcmitype/StillImage" /></cc:Work></rdf:RDF></metadata><defs
     id="defs11"><linearGradient
       inkscape:collect="always"
       id="linearGradient2165"><stop
         style="stop-color:#ffffff;stop-opacity:1;"
         offset="0"
         id="stop2167" /><stop
         style="stop-color:#b7b7b7;stop-opacity:1"
         offset="1"
         id="stop2169" /></linearGradient><linearGradient
       inkscape:collect="always"
       xlink:href="#linearGradient2165"
       id="linearGradient2171"
       x1="21.253071"
       y1="37.59214"
       x2="44.356575"
       y2="37.59214"
       gradientUnits="userSpaceOnUse" /><clipPath
       clipPathUnits="userSpaceOnUse"
       id="clipPath4182"><path
         id="path4184"
         d="m 24.999522,45.69052 -12.894535,0 c -0.63576,-1.5894 -0.95364,-3.25215 -0.95364,-4.988269 0,-2.942352 0.831379,-5.583201 2.502317,-7.930621 1.670939,-2.339329 3.822741,-4.010178 6.447222,-5.01273 -1.124805,-0.521671 -2.04581,-1.31232 -2.754926,-2.37186 -0.709117,-1.05963 -1.059631,-2.2578 -1.059631,-3.594489 0,-1.670941 0.554316,-3.12181 1.670938,-4.344421 1.108536,-1.2307 2.477864,-1.93981 4.107986,-2.12735 -1.295972,-0.96991 -1.939915,-2.2577 -1.939915,-3.84709 0,-1.3368 0.472777,-2.4860501 1.426416,-3.4396902 0.945456,-0.9536401 2.094718,-1.42632 3.447768,-1.42632 1.336701,0 2.485961,0.4726799 3.43959,1.42632 0.953641,0.9536401 1.4346,2.1028902 1.4346,3.4396902 0,1.58939 -0.64394,2.87718 -1.939909,3.84709 1.630119,0.18754 2.999449,0.89665 4.107979,2.12735 1.116629,1.222611 1.670939,2.67348 1.670939,4.344421 0,1.336689 -0.35869,2.534859 -1.084077,3.594489 -0.725392,1.05954 -1.646492,1.850189 -2.754932,2.37186 2.62449,1.002552 4.77629,2.673401 6.447229,5.01273 1.670931,2.34742 2.502313,4.988269 2.502313,7.930621 0,1.71985 -0.30979,3.382608 -0.92919,4.988269 l -12.894542,0 z"
         inkscape:connector-curvature="0"
         style="clip-rule:evenodd;fill:url(#linearGradient4186);fill-opacity:1;fill-rule:evenodd;stroke:#000000;stroke-width:1.51515675;stroke-linecap:round;stroke-linejoin:round;stroke-miterlimit:4;stroke-dasharray:none;stroke-opacity:1;image-rendering:optimizeQuality;shape-rendering:geometricPrecision;text-rendering:geometricPrecision" /></clipPath><linearGradient
       inkscape:collect="always"
       xlink:href="#linearGradient2165"
       id="linearGradient4186"
       gradientUnits="userSpaceOnUse"
       gradientTransform="matrix(0.96268857,0,0,0.96268857,45.803341,-175.14913)"
       x1="-26.698618"
       y1="210.77223"
       x2="-6.5282454"
       y2="210.77223" /><linearGradient
       inkscape:collect="always"
       xlink:href="#linearGradient2165"
       id="linearGradient4147"
       gradientUnits="userSpaceOnUse"
       gradientTransform="matrix(-0.91983599,0,0,0.91983599,5.110196,-165.43113)"
       x1="-26.698618"
       y1="210.77223"
       x2="-6.5282454"
       y2="210.77223" /><linearGradient
       inkscape:collect="always"
       id="linearGradient4223-166"><stop
         style="stop-color:#000000;stop-opacity:1"
         offset="0"
         id="stop4157" /><stop
         style="stop-color:#484848;stop-opacity:1"
         offset="1"
         id="stop4159" /></linearGradient><linearGradient
       inkscape:collect="always"
       xlink:href="#linearGradient4223-166"
       id="linearGradient5558"
       x1="31.424639"
       y1="25.499903"
       x2="-0.49958804"
       y2="25.499903"
       gradientUnits="userSpaceOnUse"
       gradientTransform="matrix(0.97634009,0,0,0.97622616,0.58771912,1.2048041)" /></defs><sodipodi:namedview
     inkscape:window-height="1025"
     inkscape:window-width="1920"
     inkscape:pageshadow="2"
     inkscape:pageopacity="0.0"
     guidetolerance="10.0"
     gridtolerance="10.0"
     objecttolerance="10.0"
     borderopacity="1.0"
     bordercolor="#666666"
     pagecolor="#ffffff"
     id="base"
     inkscape:zoom="1.1486444"
     inkscape:cx="90.743706"
     inkscape:cy="174.08456"
     inkscape:window-x="0"
     inkscape:window-y="27"
     inkscape:current-layer="svg2"
     showgrid="true"
     inkscape:window-maximized="1" /><path
     style="fill:url(#linearGradient5558);fill-opacity:1;stroke:#000000;stroke-width:1;stroke-opacity:1"
     inkscape:connector-curvature="0"
     id="path6"
     d="m 26.14635,10.376644 c 2.537801,0.165373 4.885411,0.818273 7.051226,1.967193 2.157516,1.140623 4.000944,2.611894 5.521886,4.405416 1.066359,1.256403 2.066619,2.777168 3.008983,4.554291 0.950662,1.768726 1.702835,3.653233 2.265011,5.636925 0.644775,2.314339 1.05806,4.736063 1.223354,7.281866 0.173594,2.537407 0.25629,4.893041 0.25629,7.058603 l 0,5.273281 c 0,0 -1.256452,0 -3.769454,0 -2.504703,0 -5.761676,0 -9.770821,0 l -16.24337,0 c -0.148794,0 -0.214893,-0.396738 -0.206691,-1.181917 0.0083,-0.793477 0.0579,-1.429879 0.157093,-1.917601 0.0579,-0.388441 0.214892,-0.933956 0.454681,-1.644746 0.247991,-0.710888 0.644775,-1.570455 1.215153,-2.587097 0.256192,-0.520719 0.867966,-1.272901 1.835129,-2.264747 0.975364,-0.991846 2.083119,-2.148967 3.34787,-3.454864 0.727373,-0.743885 1.28955,-1.677938 1.702835,-2.810263 0.413285,-1.124124 0.586878,-2.148966 0.52078,-3.074722 -0.595177,0.487625 -1.248251,0.884364 -1.959124,1.190215 -3.422268,1.223309 -5.902171,3.000334 -7.431413,5.322874 -0.115794,0.148776 -0.479481,0.801774 -1.091158,1.967193 -0.322387,0.611606 -0.603475,1.03314 -0.826667,1.256305 -0.305887,0.305852 -0.75227,0.479425 -1.330849,0.512519 C 11.17603,37.908662 10.473358,37.47883 9.9691758,36.553172 9.2913029,36.751542 8.687827,36.83413 8.1505471,36.801134 7.2494828,36.462188 6.5965066,36.098544 6.1914231,35.710103 5.3647559,34.883533 4.8357749,34.06526 4.5794856,33.238689 4.3314952,32.412216 4.2075,31.527755 4.2075,30.577302 c 0,-1.355588 0.8348684,-3.149111 2.521203,-5.380764 1.9674229,-2.562301 3.0172814,-4.521196 3.1412766,-5.860188 0,-0.578609 0.057799,-1.231509 0.1735934,-1.958895 0.0992,-0.504221 0.297588,-0.983548 0.603378,-1.454675 0.21499,-0.32235 0.355485,-0.545515 0.421584,-0.661295 0.0744,-0.123981 0.206691,-0.305754 0.405083,-0.545516 0.140496,-0.198369 0.264491,-0.347146 0.363687,-0.44633 0.09099,-0.107385 0.21499,-0.247962 0.363784,-0.429735 0.173593,-0.206667 0.396785,-0.446331 0.677776,-0.727386 -0.859668,-2.355634 -1.206854,-4.7856559 -1.04156,-7.2817686 3.207375,1.1406226 5.91047,2.9424433 8.084486,5.3972616 0.537378,-1.8266168 1.587139,-3.3061852 3.149478,-4.430212 1.28955,0.9008615 2.31461,2.0993744 3.075081,3.578845 z" /><path
     inkscape:connector-curvature="0"
     sodipodi:nodetypes="cccccccccccccccsccccccccscccccccccccccccccccccccccccccccccc"
     style="fill:url(#linearGradient2171);fill-opacity:1"
     id="path8"
     d="m 15.6878,17.7857 c 0.3641,-0.1863 0.5419,-0.2794 0.5419,-0.2794 0.4995,-0.1947 0.6519,-0.5588 0.4741,-1.0922 -0.1947,-0.4911 -0.5757,-0.6604 -1.143,-0.4911 -1.9473,0.7112 -3.2935,2.0151 -4.0386,3.9201 -0.1185,0.5419 0.0762,0.9144 0.5927,1.1176 0.5165,0.1609 0.8636,-0.0169 1.0414,-0.5503 0.1355,-0.2794 0.2286,-0.4657 0.2963,-0.5419 0.1863,0.1439 0.4234,0.2455 0.7197,0.2963 1.0075,0.1609 1.6002,-0.2794 1.7611,-1.3377 0.0508,-0.3641 -0.0339,-0.7112 -0.2456,-1.0414 l 0,0 z m -4.1148,16.764 c 0.0593,-0.1524 0.1694,-0.3725 0.3218,-0.6689 0.2794,-0.6942 0.4148,-1.1091 0.4148,-1.2446 C 12.2842,32.179 12.0387,31.942 11.59,31.942 c -0.3302,0 -0.7112,0.4741 -1.16,1.4139 -0.0677,0.1355 -0.1693,0.254 -0.2963,0.3471 -0.4487,0.4657 -0.381,0.8552 0.1947,1.1684 l 0,0 c 0.5334,0.3133 0.9398,0.2117 1.2446,-0.3217 l 0,0 z m 14.6304,-9.2033 c 1.16,-1.524 1.7272,-3.2173 1.7103,-5.08 -0.0677,-0.5503 -0.381,-0.8212 -0.9398,-0.8212 -0.762,0 -1.0583,0.2794 -0.8975,0.8382 0.0508,0.9144 -0.0338,1.6679 -0.2709,2.2606 -0.381,0.9398 -0.8043,1.6425 -1.2615,2.1082 -0.254,0.4995 -0.1016,0.8636 0.4487,1.0922 l 0,0 c 0.5249,0.2455 0.9313,0.1185 1.2107,-0.398 l 0,0 z m -6.477,-12.1073 c -0.0762,-0.5927 -0.0592,-1.2361 0.0508,-1.9304 -0.9906,0.1947 -1.9219,0.6604 -2.8024,1.3885 -0.525,0.2794 -0.652,0.6689 -0.3726,1.1684 0.2794,0.508 0.6689,0.5927 1.1684,0.2456 0.3472,-0.1863 0.6689,-0.3556 0.9568,-0.508 0.2878,-0.1609 0.618,-0.2794 0.999,-0.3641 l 0,0 z m 23.2495,31.4537 c -0.0169,0 0,-0.4488 0.0423,-1.3462 0.131225,-3.107467 0.09547,-6.220708 0.0762,-9.3303 -0.0169,-2.2098 -0.3132,-4.4111 -0.889,-6.6125 -0.839736,-3.309941 -2.12404,-6.484595 -4.0724,-9.2964 -2.634128,-3.845425 -6.81436,-6.033645 -11.2861,-6.9765 0.126251,0.765797 0.03295,1.540013 0.0762,2.3114 1.6002,0.5419 3.1157,1.2192 4.5381,2.032 4.240858,2.554367 6.414009,7.275359 7.1967,11.9295 1.271801,6.154161 0.452633,11.557496 0.8128,17.289 l 3.5052,0 0,0 z M 9.4394,30.1386 c 0.4742,-0.3387 0.525,-0.7282 0.144,-1.1938 -0.398,-0.381 -0.8298,-0.4149 -1.3124,-0.1016 -1.0075,0.6604 -1.5494,1.5324 -1.6171,2.6077 0.0169,0.5419 0.3471,0.8043 0.9737,0.7705 0.5926,-0.0508 0.8805,-0.3556 0.8636,-0.9229 0.1354,-0.5249 0.4487,-0.9144 0.9482,-1.1599 z" /></svg>