<?xml version="1.0" encoding="UTF-8" standalone="no"?>
<!-- Creator: CorelDRAW -->

<svg
   xmlns:dc="http://purl.org/dc/elements/1.1/"
   xmlns:cc="http://creativecommons.org/ns#"
   xmlns:rdf="http://www.w3.org/1999/02/22-rdf-syntax-ns#"
   xmlns:svg="http://www.w3.org/2000/svg"
   xmlns="http://www.w3.org/2000/svg"
   xmlns:xlink="http://www.w3.org/1999/xlink"
   xmlns:sodipodi="http://sodipodi.sourceforge.net/DTD/sodipodi-0.dtd"
   xmlns:inkscape="http://www.inkscape.org/namespaces/inkscape"
   xml:space="preserve"
   width="50mm"
   height="50mm"
   shape-rendering="geometricPrecision"
   text-rendering="geometricPrecision"
   image-rendering="optimizeQuality"
   fill-rule="evenodd"
   clip-rule="evenodd"
   viewBox="0 0 50 50"
   id="svg2"
   sodipodi:version="0.32"
   inkscape:version="0.91+devel r"
   sodipodi:docname="bq.svg"
   inkscape:output_extension="org.inkscape.output.svg.inkscape"
   sodipodi:modified="true"
   version="1.1"><sodipodi:namedview
     inkscape:window-height="1025"
     inkscape:window-width="1920"
     inkscape:pageshadow="2"
     inkscape:pageopacity="0.0"
     guidetolerance="10.0"
     gridtolerance="10.0"
     objecttolerance="10.0"
     borderopacity="1.0"
     bordercolor="#666666"
     pagecolor="#ffffff"
     id="base"
     inkscape:zoom="1.1486444"
     inkscape:cx="95.19241"
     inkscape:cy="128.7629"
     inkscape:window-x="0"
     inkscape:window-y="27"
     inkscape:current-layer="svg2"
     showgrid="true"
     inkscape:window-maximized="1" /><metadata
     id="metadata23"><rdf:RDF><cc:Work
         rdf:about=""><dc:format>image/svg+xml</dc:format><dc:type
           rdf:resource="http://purl.org/dc/dcmitype/StillImage" /></cc:Work></rdf:RDF></metadata><defs
     id="defs21"><linearGradient
       id="linearGradient2175"
       inkscape:collect="always"><stop
         id="stop2177"
         offset="0"
         style="stop-color:#ffffff;stop-opacity:1;" /><stop
         id="stop2179"
         offset="1"
         style="stop-color:#b7b7b7;stop-opacity:1" /></linearGradient><linearGradient
       gradientUnits="userSpaceOnUse"
       y2="37.223587"
       x2="45.861488"
       y1="37.223587"
       x1="21.253071"
       id="linearGradient2181"
       xlink:href="#linearGradient2175"
       inkscape:collect="always" /><linearGradient
       gradientTransform="translate(-45.442905)"
       y2="37.223587"
       x2="45.861488"
       y1="37.223587"
       x1="21.253071"
       gradientUnits="userSpaceOnUse"
       id="linearGradient4152"
       xlink:href="#linearGradient2175"
       inkscape:collect="always" /><linearGradient
       id="linearGradient2175-737"
       inkscape:collect="always"><stop
         id="stop4164"
         offset="0"
         style="stop-color:#000000;stop-opacity:1;" /><stop
         id="stop4166"
         offset="1"
         style="stop-color:#484848;stop-opacity:1" /></linearGradient><linearGradient
       inkscape:collect="always"
       xlink:href="#linearGradient2175-737"
       id="linearGradient4204"
       x1="29.882578"
       y1="28.761234"
       x2="-0.74757129"
       y2="28.761234"
       gradientUnits="userSpaceOnUse"
       gradientTransform="matrix(0.97239258,0,0,0.97244345,0.74080289,0.79156087)" /><linearGradient
       inkscape:collect="always"
       xlink:href="#linearGradient2175-737"
       id="linearGradient4167"
       x1="32.921429"
       y1="9.0812492"
       x2="-1.7316567"
       y2="9.0812492"
       gradientUnits="userSpaceOnUse" /><linearGradient
       inkscape:collect="always"
       xlink:href="#linearGradient2175-737"
       id="linearGradient4169"
       gradientUnits="userSpaceOnUse"
       x1="31.078676"
       y1="9.0812492"
       x2="-0.57993674"
       y2="9.0812492" /></defs><path
     sodipodi:nodetypes="cccccccccccccccccccccccccccccccccccccccccc"
     inkscape:connector-curvature="0"
     id="path4159"
     d="M 24.138175,11.328148 21.448306,25.5737 16.449458,12.341236 l -5.15e-4,0 c -0.526433,0.160902 -1.080335,0.257708 -1.662765,0.287946 l -5.14e-4,0 -0.147736,13.222414 -6.5862372,-11.098245 -0.028647,0.01106 -0.021101,-0.03568 c -0.3458518,0.219781 -0.7105729,0.395466 -1.1276039,0.48594 l 0.00506,0.03819 -0.00554,0.0025 2.000443,14.935521 2.1491821,3.688522 0.674855,3.836773 -1.572316,5.861941 c 3.13925,2.151157 8.949054,2.807753 14.872931,2.566897 5.92379,0.240831 11.733725,-0.41577 14.872929,-2.566897 l -1.572316,-5.861941 0.674855,-3.836773 2.149187,-3.688522 2.000441,-14.935521 -0.0055,-0.0025 0.0051,-0.03819 c -0.399289,-0.07625 -0.770787,-0.240333 -1.127626,-0.485941 l -0.02109,0.03568 -0.02865,-0.01106 -6.586238,11.098245 -0.147735,-13.222415 -5.14e-4,0 c -0.564913,-0.01073 -1.116434,-0.128581 -1.662766,-0.287945 l -5.14e-4,0 -4.998848,13.232464 -2.689872,-14.245552 -5.14e-4,0 -0.04924,0 -5.14e-4,0 c -0.549623,0.07416 -1.090102,0.07517 -1.621059,0 l -5.14e-4,0 -0.04924,0 z"
     style="fill:url(#linearGradient4204);fill-opacity:1;stroke:#000000;stroke-width:1.00012499;stroke-miterlimit:4;stroke-dasharray:none;stroke-opacity:1" /><g
     id="g4289"
     transform="translate(0.42169941,-0.4210813)"
     style="fill-opacity:1;fill:url(#linearGradient4167)"><path
       style="fill:url(#linearGradient4169);fill-opacity:1;stroke:#000000;stroke-width:1.00012493;stroke-miterlimit:4;stroke-dasharray:none;stroke-opacity:1"
       inkscape:connector-curvature="0"
       id="path6"
       d="m 24.555543,10.719729 c -0.802288,0 -1.488903,-0.281445 -2.045502,-0.8443358 -0.556514,-0.5628907 -0.831143,-1.2484341 -0.831143,-2.0494707 0,-0.7938768 0.274629,-1.4721753 0.831143,-2.035066 0.556599,-0.5628905 1.243214,-0.8443359 2.045502,-0.8443359 0.787862,0 1.474477,0.2814454 2.045504,0.8443359 0.570941,0.5628907 0.852826,1.2411892 0.852826,2.035066 0,0.8010366 -0.281885,1.48658 -0.852826,2.0494707 -0.571027,0.5628908 -1.257642,0.8443358 -2.045504,0.8443358 z" /><path
       style="fill:url(#linearGradient4167);fill-opacity:1.0;stroke:#000000;stroke-width:1.00012493;stroke-miterlimit:4;stroke-dasharray:none;stroke-opacity:1"
       inkscape:connector-curvature="0"
       id="path10"
       d="m 14.379255,11.927008 c -0.81371,0 -1.503859,-0.275579 -2.07053,-0.83402 -0.566671,-0.558526 -0.850007,-1.2475184 -0.850007,-2.0525843 0,-0.7905887 0.283336,-1.4722991 0.850007,-2.038021 0.566671,-0.565722 1.25682,-0.848583 2.07053,-0.848583 0.791916,0 1.47477,0.282861 2.041442,0.848583 0.566671,0.5657219 0.850007,1.2474323 0.850007,2.038021 0,0.8050659 -0.283336,1.4940583 -0.850007,2.0525843 -0.566672,0.558441 -1.249526,0.83402 -2.041442,0.83402 z" /><path
       style="fill:url(#linearGradient4167);fill-opacity:1.0;stroke:#000000;stroke-width:1.00012493;stroke-miterlimit:4;stroke-dasharray:none;stroke-opacity:1"
       inkscape:connector-curvature="0"
       id="path12"
       d="m 34.757367,11.927008 c -0.806417,0 -1.489357,-0.275579 -2.048736,-0.83402 -0.559377,-0.558526 -0.842713,-1.2475184 -0.842713,-2.0525843 0,-0.7905887 0.283336,-1.4722991 0.842713,-2.038021 0.559379,-0.565722 1.242319,-0.848583 2.048736,-0.848583 0.81371,0 1.503859,0.282861 2.07053,0.848583 0.566671,0.5657219 0.850007,1.2474323 0.850007,2.038021 0,0.8050659 -0.283336,1.4940583 -0.850007,2.0525843 -0.566671,0.558441 -1.25682,0.83402 -2.07053,0.83402 z" /><path
       style="fill:url(#linearGradient4167);fill-opacity:1.0;stroke:#000000;stroke-width:1.00012493;stroke-miterlimit:4;stroke-dasharray:none;stroke-opacity:1"
       inkscape:connector-curvature="0"
       id="path14"
       d="m 5.4321533,14.598042 c -0.8022959,0 -1.4817461,-0.281441 -2.0382652,-0.837164 -0.5566045,-0.555638 -0.8384923,-1.234011 -0.8384923,-2.042196 0,-0.78662 0.2818878,-1.464993 0.8384923,-2.0350353 0.5565191,-0.577372 1.2359693,-0.8588131 2.0382652,-0.8588131 0.8094668,0 1.488917,0.2814411 2.0599488,0.8588131 0.5637754,0.5700423 0.8456632,1.2484153 0.8456632,2.0350353 0,0.808185 -0.2818878,1.486558 -0.8456632,2.042196 -0.5710318,0.555723 -1.250482,0.837164 -2.0599488,0.837164 z" /><path
       style="fill:url(#linearGradient4167);fill-opacity:1.0;stroke:#000000;stroke-width:1.00012493;stroke-miterlimit:4;stroke-dasharray:none;stroke-opacity:1"
       inkscape:connector-curvature="0"
       id="path16"
       d="m 43.717276,14.598042 c -0.802296,0 -1.489002,-0.281441 -2.052778,-0.837164 -0.563775,-0.555638 -0.845663,-1.234011 -0.845663,-2.042196 0,-0.78662 0.281888,-1.464993 0.845663,-2.0350353 0.563776,-0.577372 1.250482,-0.8588131 2.052778,-0.8588131 0.79504,0 1.47449,0.2814411 2.038266,0.8588131 0.563775,0.5700423 0.845663,1.2484153 0.845663,2.0350353 0,0.808185 -0.281888,1.486558 -0.845663,2.042196 -0.563776,0.555723 -1.243226,0.837164 -2.038266,0.837164 z" /></g><path
     d="m 37.2005,35.7291 c -3.0396,-0.8382 -7.0951,-1.2616 -12.1497,-1.2616 -5.0969,0 -9.1948,0.4318 -12.3021,1.287 l 0.3726,2.5061 c 3.1242,-0.8128 7.095,-1.2192 11.9295,-1.2192 4.8091,0 8.7291,0.3979 11.7517,1.1938 l 0.398,-2.5061 z m 1.7356,-4.4366 c -1.3716,-0.4995 -3.302,-0.9059 -5.7912,-1.2276 -2.4892,-0.3218 -5.2324,-0.4826 -8.2465,-0.4826 -2.9464,0 -5.6388,0.1524 -8.0857,0.4572 -2.4468,0.3048 -4.3772,0.7027 -5.7827,1.2022 l 1.2446,2.2522 c 1.3885,-0.4064 3.1919,-0.7028 5.4102,-0.889 2.2098,-0.1778 4.6313,-0.271 7.2644,-0.271 2.6331,0 5.0631,0.0932 7.2898,0.271 2.2352,0.1862 4.0471,0.491 5.4356,0.9144 l 1.2615,-2.2268 z m -1.0922,11.8534 -0.7366,-2.9295 c -3.2258,-0.7366 -7.2813,-1.1091 -12.1581,-1.1091 -4.826,0 -8.8646,0.3725 -12.1073,1.1091 l -0.7874,2.9549 c 3.1411,-0.9568 7.4422,-1.4394 12.9201,-1.4394 2.6247,0 5.0715,0.1355 7.3152,0.398 2.2521,0.2624 4.1063,0.6011 5.5541,1.016 z"
     id="path18"
     style="fill:url(#linearGradient2181);fill-opacity:1"
     inkscape:connector-curvature="0" /></svg>