<?xml version="1.0" encoding="UTF-8" standalone="no"?>
<!-- Creator: CorelDRAW -->

<svg
   xmlns:dc="http://purl.org/dc/elements/1.1/"
   xmlns:cc="http://creativecommons.org/ns#"
   xmlns:rdf="http://www.w3.org/1999/02/22-rdf-syntax-ns#"
   xmlns:svg="http://www.w3.org/2000/svg"
   xmlns="http://www.w3.org/2000/svg"
   xmlns:xlink="http://www.w3.org/1999/xlink"
   xmlns:sodipodi="http://sodipodi.sourceforge.net/DTD/sodipodi-0.dtd"
   xmlns:inkscape="http://www.inkscape.org/namespaces/inkscape"
   xml:space="preserve"
   width="50mm"
   height="50mm"
   shape-rendering="geometricPrecision"
   text-rendering="geometricPrecision"
   image-rendering="optimizeQuality"
   fill-rule="evenodd"
   clip-rule="evenodd"
   viewBox="0 0 50 50"
   id="svg2"
   sodipodi:version="0.32"
   inkscape:version="0.91+devel r"
   sodipodi:docname="br.svg"
   inkscape:output_extension="org.inkscape.output.svg.inkscape"
   sodipodi:modified="true"
   version="1.1"><sodipodi:namedview
     inkscape:window-height="1025"
     inkscape:window-width="1920"
     inkscape:pageshadow="2"
     inkscape:pageopacity="0.0"
     guidetolerance="10.0"
     gridtolerance="10.0"
     objecttolerance="10.0"
     borderopacity="1.0"
     bordercolor="#666666"
     pagecolor="#ffffff"
     id="base"
     inkscape:zoom="0.5743222"
     inkscape:cx="-219.84897"
     inkscape:cy="-3.5641781"
     inkscape:window-x="0"
     inkscape:window-y="27"
     inkscape:current-layer="svg2"
     showgrid="true"
     inkscape:window-maximized="1" /><metadata
     id="metadata13"><rdf:RDF><cc:Work
         rdf:about=""><dc:format>image/svg+xml</dc:format><dc:type
           rdf:resource="http://purl.org/dc/dcmitype/StillImage" /></cc:Work></rdf:RDF></metadata><defs
     id="defs11"><linearGradient
       id="linearGradient2165"
       inkscape:collect="always"><stop
         id="stop2167"
         offset="0"
         style="stop-color:#ffffff;stop-opacity:1;" /><stop
         id="stop2169"
         offset="1"
         style="stop-color:#b7b7b7;stop-opacity:1" /></linearGradient><linearGradient
       gradientUnits="userSpaceOnUse"
       y2="37.551861"
       x2="40.190372"
       y1="37.551861"
       x1="21.191647"
       id="linearGradient2171"
       xlink:href="#linearGradient2165"
       inkscape:collect="always" /><linearGradient
       gradientTransform="translate(-46.299142)"
       y2="37.551861"
       x2="40.190372"
       y1="37.551861"
       x1="21.191647"
       gradientUnits="userSpaceOnUse"
       id="linearGradient4145"
       xlink:href="#linearGradient2165"
       inkscape:collect="always" /><linearGradient
       id="linearGradient2165-148"
       inkscape:collect="always"><stop
         id="stop4159"
         offset="0"
         style="stop-color:#000000;stop-opacity:1;" /><stop
         id="stop4161"
         offset="1"
         style="stop-color:#484848;stop-opacity:1" /></linearGradient><linearGradient
       inkscape:collect="always"
       xlink:href="#linearGradient2165-148"
       id="linearGradient4189"
       x1="27.650139"
       y1="26.1364"
       x2="7.6078458"
       y2="26.1364"
       gradientUnits="userSpaceOnUse"
       gradientTransform="matrix(0.97046505,0,0,0.97060615,0.73837344,0.7682495)" /></defs><path
     id="polygon6"
     d="m 32.39902,6.4219333 6.597997,0 0,9.0231437 -5.340857,4.117117 0,11.513136 4.091869,4.092464 0,4.930679 3.681071,0 0,5.752394 -32.8582002,0 0,-5.752394 3.6810712,0 0,-4.930679 4.116519,-4.092464 0,-11.513136 -5.340858,-4.117117 0,-9.0231437 6.573348,0 0,3.2953054 4.116519,0 0,-3.2953054 6.589652,0 0,3.2953054 4.091869,0 z"
     style="fill:url(#linearGradient4189);fill-opacity:1;stroke:#000000;stroke-width:1;stroke-opacity:1"
     inkscape:connector-curvature="0" /><path
     d="m 25.0127,35.0433 -10.2701,0 -1.143,1.0668 0,1.4394 22.8262,0 0,-1.4394 -1.143,-1.0668 -10.2701,0 z m -11.4131,5.08 0,2.5316 22.8262,0 0,-2.5316 -22.8262,0 z m 11.4131,-27.0848 -12.7,0 0,1.143 1.8119,1.3631 21.8016,0 1.7611,-1.3631 0,-1.143 -12.6746,0 z m 0,4.191 -8.6783,0 1.4816,1.1684 0,1.4139 14.3934,0 0,-1.4139 1.4816,-1.1684 -8.6783,0 z m 0,13.5466 -7.1967,0 0,1.143 -1.4816,1.4394 17.3566,0 -1.4816,-1.4394 0,-1.143 -7.1967,0 z"
     id="path8"
     style="fill:url(#linearGradient2171);fill-opacity:1"
     inkscape:connector-curvature="0" /></svg>