<?xml version="1.0" encoding="UTF-8" standalone="no"?>
<!-- Creator: CorelDRAW -->

<svg
   xmlns:dc="http://purl.org/dc/elements/1.1/"
   xmlns:cc="http://creativecommons.org/ns#"
   xmlns:rdf="http://www.w3.org/1999/02/22-rdf-syntax-ns#"
   xmlns:svg="http://www.w3.org/2000/svg"
   xmlns="http://www.w3.org/2000/svg"
   xmlns:xlink="http://www.w3.org/1999/xlink"
   xmlns:sodipodi="http://sodipodi.sourceforge.net/DTD/sodipodi-0.dtd"
   xmlns:inkscape="http://www.inkscape.org/namespaces/inkscape"
   xml:space="preserve"
   width="50mm"
   height="50mm"
   shape-rendering="geometricPrecision"
   text-rendering="geometricPrecision"
   image-rendering="optimizeQuality"
   fill-rule="evenodd"
   clip-rule="evenodd"
   viewBox="0 0 50 50"
   id="svg2"
   sodipodi:version="0.32"
   inkscape:version="0.91+devel r"
   sodipodi:docname="wn.svg"
   inkscape:output_extension="org.inkscape.output.svg.inkscape"
   sodipodi:modified="true"
   version="1.1"><metadata
     id="metadata12"><rdf:RDF><cc:Work
         rdf:about=""><dc:format>image/svg+xml</dc:format><dc:type
           rdf:resource="http://purl.org/dc/dcmitype/StillImage" /></cc:Work></rdf:RDF></metadata><defs
     id="defs10"><linearGradient
       inkscape:collect="always"
       id="linearGradient2164"><stop
         style="stop-color:#ffffff;stop-opacity:1;"
         offset="0"
         id="stop2166" /><stop
         style="stop-color:#b7b7b7;stop-opacity:1"
         offset="1"
         id="stop2168" /></linearGradient><linearGradient
       inkscape:collect="always"
       xlink:href="#linearGradient2164"
       id="linearGradient2170"
       x1="21.40517"
       y1="37.346436"
       x2="44.251324"
       y2="37.346436"
       gradientUnits="userSpaceOnUse" /></defs><sodipodi:namedview
     inkscape:window-height="1025"
     inkscape:window-width="1920"
     inkscape:pageshadow="2"
     inkscape:pageopacity="0.0"
     guidetolerance="10.0"
     gridtolerance="10.0"
     objecttolerance="10.0"
     borderopacity="1.0"
     bordercolor="#666666"
     pagecolor="#ffffff"
     id="base"
     inkscape:zoom="2.2972888"
     inkscape:cx="66.458821"
     inkscape:cy="72.966285"
     inkscape:window-x="0"
     inkscape:window-y="27"
     inkscape:current-layer="svg2"
     showgrid="true"
     inkscape:window-maximized="1" /><path
     id="_141333800"
     d="m 26.178,9.3952 c 2.5993,0.1694 5.0038,0.8382 7.2221,2.0151 2.2098,1.1684 4.0979,2.6755 5.6557,4.5127 1.0922,1.287 2.1167,2.8448 3.0819,4.6652 0.9737,1.8118 1.7441,3.7422 2.3199,5.7742 0.6604,2.3707 1.0837,4.8514 1.253,7.4592 0.1778,2.5992 0.2625,5.0122 0.2625,7.2305 l 0,5.4017 c 0,0 -1.2869,0 -3.8608,0 -2.5654,0 -5.9013,0 -10.0076,0 l -16.637,0 c -0.1524,0 -0.2201,-0.4064 -0.2117,-1.2107 0.0085,-0.8128 0.0593,-1.4647 0.1609,-1.9643 0.0593,-0.3979 0.2201,-0.9567 0.4657,-1.6848 0.254,-0.7282 0.6604,-1.6087 1.2446,-2.6501 0.2624,-0.5334 0.889,-1.3039 1.8796,-2.3199 0.999,-1.016 2.1336,-2.2013 3.429,-3.539 0.745,-0.762 1.3208,-1.7188 1.7441,-2.8787 0.4233,-1.1515 0.6011,-2.2013 0.5334,-3.1496 -0.6096,0.4995 -1.2785,0.9059 -2.0066,1.2192 -3.5052,1.2531 -6.0452,3.0734 -7.6115,5.4525 -0.1186,0.1524 -0.4911,0.8213 -1.1176,2.0151 -0.3302,0.6265 -0.6181,1.0583 -0.8467,1.2869 -0.3133,0.3133 -0.7705,0.4911 -1.3631,0.525 -0.9229,0.0423 -1.6426,-0.398 -2.159,-1.3462 C 8.9145,36.4124 8.2964,36.497 7.7461,36.4632 6.8232,36.116 6.1544,35.7435 5.7395,35.3456 4.8928,34.4989 4.351,33.6607 4.0885,32.814 c -0.254,-0.8466 -0.381,-1.7526 -0.381,-2.7262 0,-1.3886 0.8551,-3.2258 2.5823,-5.5118 2.0151,-2.6247 3.0904,-4.6313 3.2174,-6.0029 0,-0.5927 0.0592,-1.2615 0.1778,-2.0066 0.1016,-0.5165 0.3048,-1.0075 0.618,-1.4901 0.2202,-0.3302 0.3641,-0.5588 0.4318,-0.6774 0.0762,-0.127 0.2117,-0.3132 0.4149,-0.5588 0.1439,-0.2032 0.2709,-0.3556 0.3725,-0.4572 0.0932,-0.11 0.2202,-0.254 0.3726,-0.4402 0.1778,-0.2117 0.4064,-0.4572 0.6942,-0.7451 -0.8805,-2.413 -1.2361,-4.9022 -1.0668,-7.4591 3.2851,1.1684 6.0537,3.0141 8.2804,5.5287 0.5504,-1.8711 1.6256,-3.3867 3.2258,-4.5381 1.3208,0.9228 2.3707,2.1505 3.1496,3.666 z"
     inkscape:connector-curvature="0"
     style="fill:#000000;fill-opacity:1" /><path
     id="_141343840"
     d="m 42.9759,44.6928 c -0.0169,0 0,-0.4488 0.0423,-1.3462 0.0508,-0.906 0.0762,-1.8796 0.0762,-2.921 0.017,-2.0659 0.017,-4.1995 0,-6.4093 -0.0169,-2.2098 -0.3132,-4.4111 -0.889,-6.6125 -0.5672,-2.1166 -1.1853,-3.92 -1.8626,-5.4186 -0.6774,-1.4986 -1.414,-2.7856 -2.2098,-3.8778 -1.1854,-1.7864 -2.811,-3.302 -4.8599,-4.5381 -2.0489,-1.2446 -4.191,-2.0574 -6.4262,-2.4384 0.1524,0.8128 0.2201,1.6087 0.2032,2.3876 -0.0339,0.5927 -0.3133,0.889 -0.8467,0.889 -0.6096,0 -0.8805,-0.2963 -0.8212,-0.889 0.0508,-2.1844 -0.7282,-4.0555 -2.3284,-5.6049 -1.253,1.3208 -1.9388,2.8532 -2.032,4.6058 -0.0338,0.5842 -0.3302,0.8382 -0.8974,0.7705 -0.525,-0.0169 -0.7874,-0.3217 -0.7874,-0.9144 0,0 0.0169,-0.0677 0.0423,-0.2032 -0.6773,0.2201 -1.3885,0.5249 -2.1336,0.9229 -0.4741,0.3302 -0.8636,0.2455 -1.1599,-0.2456 -0.2964,-0.4995 -0.1694,-0.889 0.3979,-1.1684 0.7112,-0.364 1.2446,-0.635 1.6087,-0.8212 C 16.67,9.4037 15.0528,8.2353 13.2325,7.3378 c 0.1947,2.303 0.8297,4.4704 1.8881,6.5278 0.2794,0.4234 0.2116,0.8044 -0.2032,1.1346 -0.4657,0.364 -0.8552,0.3132 -1.1684,-0.1694 -0.1101,-0.1693 -0.2794,-0.4656 -0.4911,-0.8974 -0.3471,0.3471 -0.5842,0.6096 -0.6943,0.7704 -0.1185,0.1524 -0.3217,0.4826 -0.6096,0.9906 -0.2878,0.5165 -0.4995,0.9398 -0.635,1.27 -0.1439,0.4149 -0.2116,0.7451 -0.1862,1.0076 0.0254,0.254 0.0508,0.5334 0.0677,0.8551 -0.1524,0.9737 -0.4911,1.8881 -1.0075,2.7517 -0.525,0.8551 -1.1854,1.905 -1.9982,3.1496 -0.7789,1.1853 -1.3716,2.0828 -1.7864,2.6754 -0.4149,0.6012 -0.7282,1.3547 -0.9398,2.286 -0.1524,0.5588 -0.1524,1.2446 0,2.0405 0.1439,0.8043 0.4741,1.4309 0.9652,1.8796 0.762,0.7705 1.4986,1.1261 2.2098,1.0668 0.2286,0 0.5418,-0.0931 0.9313,-0.2794 0.3895,-0.1778 0.6858,-0.5249 0.9059,-1.0414 0.4234,-0.9398 0.779,-1.4139 1.0668,-1.4139 0.4064,0 0.635,0.237 0.6689,0.6942 0,0.1016 -0.1355,0.5165 -0.3979,1.2446 -0.1524,0.3302 -0.3472,0.6774 -0.5927,1.0414 -0.3217,0.4318 -0.4572,0.6096 -0.4233,0.5419 0.2624,0.9483 0.7027,1.1091 1.3123,0.4995 0.1778,-0.1778 0.3895,-0.5249 0.6181,-1.016 0.237,-0.4995 0.6011,-1.1684 1.0922,-2.0066 0.5842,-0.9821 1.2022,-1.7695 1.8626,-2.3876 0.6604,-0.6096 1.2446,-1.1091 1.7611,-1.4816 0.2963,-0.2202 0.6604,-0.4657 1.0922,-0.7451 0.4318,-0.2879 1.0075,-0.5757 1.7357,-0.8721 0.5757,-0.2286 1.2192,-0.5164 1.9219,-0.8551 0.7027,-0.3387 1.3293,-0.7705 1.8711,-1.3039 0.762,-0.745 1.3462,-1.6594 1.7611,-2.7516 0.2201,-0.6096 0.2963,-1.3632 0.2455,-2.2606 -0.1439,-0.5588 0.1355,-0.8382 0.8467,-0.8382 0.5334,0 0.8297,0.2709 0.8975,0.8212 0,1.8627 -0.5334,3.5645 -1.5918,5.1054 0.3472,1.0584 0.4403,2.2183 0.271,3.4714 -0.144,1.0075 -0.4996,2.0912 -1.0499,3.2427 -0.5588,1.143 -1.6764,2.4215 -3.3613,3.8269 -3.429,2.8448 -5.0461,5.7743 -4.8598,8.78 0,0 1.4054,0 4.2248,0 2.8194,0 5.4695,0 7.9502,0 l 13.5721,0 z M 9.3378,29.6136 c -0.4826,0.2964 -0.7704,0.6943 -0.872,1.1938 0.0169,0.5419 -0.2371,0.8382 -0.762,0.889 -0.5842,0.0678 -0.8806,-0.1778 -0.8975,-0.745 0.0677,-1.0922 0.5503,-1.9558 1.4647,-2.5993 0.4318,-0.3471 0.8298,-0.3217 1.1938,0.0931 0.3641,0.4488 0.3218,0.8382 -0.127,1.1684 z m 7.366,-11.8279 c 0.2117,0.3302 0.2964,0.6773 0.2456,1.0414 -0.1609,1.0583 -0.7536,1.4986 -1.7611,1.3377 -0.2963,-0.0508 -0.5334,-0.1524 -0.7197,-0.2963 -0.0592,0.0762 -0.1608,0.2625 -0.2963,0.5419 -0.1778,0.5334 -0.5249,0.7112 -1.0414,0.5503 -0.508,-0.2032 -0.7112,-0.5757 -0.5927,-1.1176 0.7451,-1.905 2.0913,-3.2089 4.0386,-3.9201 0.5673,-0.1693 0.9398,0 1.1176,0.4911 0.2032,0.5334 0.0508,0.8975 -0.4487,1.0922 -0.0931,0.0508 -0.1863,0.1016 -0.2709,0.1355 -0.0847,0.0423 -0.1694,0.0931 -0.271,0.1439 z"
     style="fill:url(#linearGradient2170);fill-opacity:1"
     inkscape:connector-curvature="0" /></svg>