<?xml version="1.0" encoding="UTF-8" standalone="no"?>
<!-- Creator: CorelDRAW -->

<svg
   xmlns:dc="http://purl.org/dc/elements/1.1/"
   xmlns:cc="http://creativecommons.org/ns#"
   xmlns:rdf="http://www.w3.org/1999/02/22-rdf-syntax-ns#"
   xmlns:svg="http://www.w3.org/2000/svg"
   xmlns="http://www.w3.org/2000/svg"
   xmlns:xlink="http://www.w3.org/1999/xlink"
   xmlns:sodipodi="http://sodipodi.sourceforge.net/DTD/sodipodi-0.dtd"
   xmlns:inkscape="http://www.inkscape.org/namespaces/inkscape"
   xml:space="preserve"
   width="50mm"
   height="50mm"
   shape-rendering="geometricPrecision"
   text-rendering="geometricPrecision"
   image-rendering="optimizeQuality"
   fill-rule="evenodd"
   clip-rule="evenodd"
   viewBox="0 0 50 50"
   id="svg2"
   sodipodi:version="0.32"
   inkscape:version="0.91+devel r"
   sodipodi:docname="wp.svg"
   inkscape:output_extension="org.inkscape.output.svg.inkscape"
   sodipodi:modified="true"
   version="1.1"><metadata
     id="metadata13"><rdf:RDF><cc:Work
         rdf:about=""><dc:format>image/svg+xml</dc:format><dc:type
           rdf:resource="http://purl.org/dc/dcmitype/StillImage" /></cc:Work></rdf:RDF></metadata><defs
     id="defs11"><linearGradient
       inkscape:collect="always"
       id="linearGradient4223"><stop
         style="stop-color:#ffffff;stop-opacity:1"
         offset="0"
         id="stop4225" /><stop
         style="stop-color:#b7b7b7;stop-opacity:1"
         offset="1"
         id="stop4227" /></linearGradient><clipPath
       clipPathUnits="userSpaceOnUse"
       id="clipPath4182"><path
         id="path4184"
         d="m 24.999522,45.69052 -12.894535,0 c -0.63576,-1.5894 -0.95364,-3.25215 -0.95364,-4.988269 0,-2.942352 0.831379,-5.583201 2.502317,-7.930621 1.670939,-2.339329 3.822741,-4.010178 6.447222,-5.01273 -1.124805,-0.521671 -2.04581,-1.31232 -2.754926,-2.37186 -0.709117,-1.05963 -1.059631,-2.2578 -1.059631,-3.594489 0,-1.670941 0.554316,-3.12181 1.670938,-4.344421 1.108536,-1.2307 2.477864,-1.93981 4.107986,-2.12735 -1.295972,-0.96991 -1.939915,-2.2577 -1.939915,-3.84709 0,-1.3368 0.472777,-2.4860501 1.426416,-3.4396902 0.945456,-0.9536401 2.094718,-1.42632 3.447768,-1.42632 1.336701,0 2.485961,0.4726799 3.43959,1.42632 0.953641,0.9536401 1.4346,2.1028902 1.4346,3.4396902 0,1.58939 -0.64394,2.87718 -1.939909,3.84709 1.630119,0.18754 2.999449,0.89665 4.107979,2.12735 1.116629,1.222611 1.670939,2.67348 1.670939,4.344421 0,1.336689 -0.35869,2.534859 -1.084077,3.594489 -0.725392,1.05954 -1.646492,1.850189 -2.754932,2.37186 2.62449,1.002552 4.77629,2.673401 6.447229,5.01273 1.670931,2.34742 2.502313,4.988269 2.502313,7.930621 0,1.71985 -0.30979,3.382608 -0.92919,4.988269 l -12.894542,0 z"
         inkscape:connector-curvature="0"
         style="clip-rule:evenodd;fill:url(#linearGradient4186);fill-opacity:1;fill-rule:evenodd;stroke:#000000;stroke-width:1.51515675;stroke-linecap:round;stroke-linejoin:round;stroke-miterlimit:4;stroke-dasharray:none;stroke-opacity:1;image-rendering:optimizeQuality;shape-rendering:geometricPrecision;text-rendering:geometricPrecision" /></clipPath><linearGradient
       inkscape:collect="always"
       xlink:href="#linearGradient4223"
       id="linearGradient4186"
       gradientUnits="userSpaceOnUse"
       gradientTransform="matrix(0.96268857,0,0,0.96268857,45.803341,-175.14913)"
       x1="-26.698618"
       y1="210.77223"
       x2="-6.5282454"
       y2="210.77223" /><linearGradient
       inkscape:collect="always"
       xlink:href="#linearGradient4223"
       id="linearGradient4147"
       gradientUnits="userSpaceOnUse"
       gradientTransform="matrix(0.91983599,0,0,0.91983599,44.889402,-165.43113)"
       x1="-26.698618"
       y1="210.77223"
       x2="-6.5282454"
       y2="210.77223" /></defs><sodipodi:namedview
     inkscape:window-height="1025"
     inkscape:window-width="1920"
     inkscape:pageshadow="2"
     inkscape:pageopacity="0.0"
     guidetolerance="10.0"
     gridtolerance="10.0"
     objecttolerance="10.0"
     borderopacity="1.0"
     bordercolor="#666666"
     pagecolor="#ffffff"
     id="base"
     inkscape:zoom="1.6244285"
     inkscape:cx="87.817512"
     inkscape:cy="81.052578"
     inkscape:window-x="0"
     inkscape:window-y="27"
     inkscape:current-layer="svg2"
     showgrid="true"
     inkscape:window-maximized="1"
     inkscape:snap-object-midpoints="false" /><path
     style="clip-rule:evenodd;fill:url(#linearGradient4147);fill-opacity:1;fill-rule:evenodd;stroke:#000000;stroke-width:1.73979807;stroke-linecap:round;stroke-linejoin:round;stroke-miterlimit:4;stroke-dasharray:none;stroke-opacity:1;image-rendering:optimizeQuality;shape-rendering:geometricPrecision;text-rendering:geometricPrecision"
     d="m 21.701557,9.597867 c -0.911191,0.911189 -1.37046,2.009327 -1.37046,3.286621 0,1.518642 0.61535,2.749009 1.853634,3.675745 -1.557557,0.179191 -2.866155,0.857032 -3.925342,2.032951 -1.066925,1.168189 -1.596285,2.55409 -1.596285,4.150651 0,1.277189 0.342498,2.421954 1.035595,3.434415 0.677553,1.012376 1.557663,1.768079 2.632398,2.266528 -2.507665,0.957924 -4.563787,2.554171 -6.160346,4.789374 -1.596552,2.242928 -2.391069,4.766452 -2.391069,7.57783 0.03359,1.637686 0.382953,3.433607 0.887801,4.766117 l 0.02376,0 c 8.205875,0 16.411747,0 24.617622,0 l 0.02325,0 c 0.572975,-1.7175 0.86974,-3.144396 0.887801,-4.766117 0,-2.811378 -0.794516,-5.334902 -2.391068,-7.57783 -1.59656,-2.235203 -3.652166,-3.83145 -6.159831,-4.789374 1.074737,-0.498449 1.954329,-1.254152 2.631882,-2.266528 0.693098,-1.012461 1.036111,-2.157226 1.036111,-3.434415 0,-1.596561 -0.529876,-2.982462 -1.596801,-4.150651 -1.059187,-1.175919 -2.367266,-1.85376 -3.924826,-2.032951 1.238284,-0.926736 1.853634,-2.157103 1.853634,-3.675745 0,-1.277294 -0.459785,-2.375432 -1.370976,-3.286621 -1.990365,-1.7253304 -4.693264,-1.8521309 -6.596488,0 z"
     id="path4145"
     inkscape:connector-curvature="0"
     sodipodi:nodetypes="csccsccccccccccccsccscc" /></svg>