<?xml version="1.0" encoding="UTF-8" standalone="no"?>
<!-- Creator: CorelDRAW -->

<svg
   xmlns:dc="http://purl.org/dc/elements/1.1/"
   xmlns:cc="http://creativecommons.org/ns#"
   xmlns:rdf="http://www.w3.org/1999/02/22-rdf-syntax-ns#"
   xmlns:svg="http://www.w3.org/2000/svg"
   xmlns="http://www.w3.org/2000/svg"
   xmlns:xlink="http://www.w3.org/1999/xlink"
   xmlns:sodipodi="http://sodipodi.sourceforge.net/DTD/sodipodi-0.dtd"
   xmlns:inkscape="http://www.inkscape.org/namespaces/inkscape"
   xml:space="preserve"
   width="50mm"
   height="50mm"
   shape-rendering="geometricPrecision"
   text-rendering="geometricPrecision"
   image-rendering="optimizeQuality"
   fill-rule="evenodd"
   clip-rule="evenodd"
   viewBox="0 0 50 50"
   id="svg2"
   sodipodi:version="0.32"
   inkscape:version="0.91+devel r"
   sodipodi:docname="wq.svg"
   inkscape:output_extension="org.inkscape.output.svg.inkscape"
   sodipodi:modified="true"
   version="1.1"><metadata
     id="metadata13"><rdf:RDF><cc:Work
         rdf:about=""><dc:format>image/svg+xml</dc:format><dc:type
           rdf:resource="http://purl.org/dc/dcmitype/StillImage" /></cc:Work></rdf:RDF></metadata><defs
     id="defs11"><linearGradient
       inkscape:collect="always"
       id="linearGradient2173"><stop
         style="stop-color:#ffffff;stop-opacity:1;"
         offset="0"
         id="stop2175" /><stop
         style="stop-color:#b7b7b7;stop-opacity:1"
         offset="1"
         id="stop2177" /></linearGradient><linearGradient
       inkscape:collect="always"
       xlink:href="#linearGradient2173"
       id="linearGradient2179"
       x1="21.253069"
       y1="37.223587"
       x2="46.544834"
       y2="37.223587"
       gradientUnits="userSpaceOnUse" /></defs><sodipodi:namedview
     inkscape:window-height="1025"
     inkscape:window-width="1920"
     inkscape:pageshadow="2"
     inkscape:pageopacity="0.0"
     guidetolerance="10.0"
     gridtolerance="10.0"
     objecttolerance="10.0"
     borderopacity="1.0"
     bordercolor="#666666"
     pagecolor="#ffffff"
     id="base"
     inkscape:zoom="2.2972888"
     inkscape:cx="225.77338"
     inkscape:cy="135.60508"
     inkscape:window-x="0"
     inkscape:window-y="27"
     inkscape:current-layer="svg2"
     showgrid="true"
     inkscape:snap-object-midpoints="true"
     inkscape:window-maximized="1" /><path
     style="fill:#000000;stroke:#000000;stroke-width:0.0762;stroke-opacity:1;stroke-miterlimit:4;stroke-dasharray:none;fill-opacity:1"
     d="m 24.114752,10.777637 -2.766237,14.649234 -5.140772,-13.607438 -5.29e-4,0 c -0.54138,0.165462 -1.111007,0.265011 -1.709973,0.296106 l -5.3e-4,0 -0.151929,13.597103 -6.7732297,-11.41274 -0.029456,0.01137 -0.021696,-0.03669 C 7.164729,14.500591 6.789653,14.681254 6.3607819,14.774292 l 0.00516,0.03927 -0.00569,0.0026 2.0572385,15.358755 2.2101996,3.793045 0.694015,3.945499 -1.6169558,6.028052 c 3.2283768,2.212115 9.2031288,2.887318 15.2951918,2.639637 6.091973,0.247655 12.06686,-0.427551 15.295189,-2.639637 l -1.616956,-6.028052 0.694015,-3.945499 2.210203,-3.793045 2.057238,-15.358755 -0.0057,-0.0026 0.0052,-0.03927 c -0.410604,-0.07841 -0.792649,-0.247143 -1.159618,-0.499711 l -0.0217,0.03669 -0.02946,-0.01137 -6.77323,11.41274 -0.151929,-13.597103 -5.3e-4,0 c -0.58095,-0.01103 -1.14813,-0.132225 -1.709973,-0.296106 l -5.29e-4,0 -5.140772,13.607438 -2.76624,-14.649234 -5.29e-4,0 -0.05064,0 -5.29e-4,0 c -0.565227,0.07626 -1.12105,0.0773 -1.667081,0 l -5.29e-4,0 -0.05064,0 z"
     id="path4159"
     inkscape:connector-curvature="0"
     sodipodi:nodetypes="cccccccccccccccccccccccccccccccccccccccccc" /><path
     inkscape:connector-curvature="0"
     style="fill:url(#linearGradient2179);fill-opacity:1;stroke:#1f1a17;stroke-width:0.0762"
     id="path8"
     d="m 38.2165,43.0443 c -3.0226,-1.2531 -7.4168,-1.8796 -13.1657,-1.8796 -5.8759,0 -10.3124,0.6434 -13.3265,1.9304 2.8956,1.143 7.3152,1.7102 13.2503,1.7102 2.8448,0 5.4441,-0.1524 7.7978,-0.4656 2.3622,-0.3133 4.1741,-0.7451 5.4441,-1.2954 z M 24.9492,9.0167 c 1.1091,0 1.6595,-0.5588 1.6595,-1.6594 0,-1.0922 -0.5504,-1.6426 -1.6595,-1.6426 -1.0922,0 -1.6341,0.5504 -1.6341,1.6426 0,1.1006 0.5419,1.6594 1.6341,1.6594 z M 37.573,33.9934 c -3.1919,-0.8128 -7.366,-1.2107 -12.5222,-1.2107 -5.2917,0 -9.5165,0.4064 -12.6746,1.2361 l 0.3725,2.3791 c 3.2174,-0.762 7.3237,-1.143 12.3021,-1.143 4.9445,0 8.9747,0.3726 12.0989,1.1176 z m 0.6181,-1.4901 1.6171,-2.8533 c -0.7959,0.3217 -1.6087,0.4741 -2.4299,0.4741 -2.2183,0 -3.9878,-0.8974 -5.3086,-2.7008 -0.9906,0.8212 -2.0998,1.2361 -3.3274,1.2361 -1.5833,0 -2.8533,-0.6181 -3.7931,-1.8627 -1.0583,1.16 -2.3199,1.7442 -3.7931,1.7442 -1.1938,0 -2.286,-0.4064 -3.2766,-1.2192 -1.3885,1.7695 -3.1834,2.65 -5.3848,2.65 -0.8382,0 -1.6764,-0.1524 -2.5061,-0.4656 l 1.7357,2.9718 c 3.2088,-0.9229 7.62,-1.3886 13.2249,-1.3886 5.7065,0 10.1177,0.4742 13.2419,1.414 z M 27.0828,26.5766 24.9746,14.4439 22.8664,26.4327 c 0.0508,-0.0339 0.1609,-0.1186 0.3471,-0.254 0.381,-0.7451 0.9568,-1.1176 1.7357,-1.1176 0.8467,0 1.3885,0.3725 1.6341,1.1176 0.1016,0.1016 0.2709,0.237 0.4995,0.3979 z m 6.8665,0.4741 0,-11.4892 -4.0894,11.2606 c 0.3132,-0.11 0.5757,-0.2624 0.7958,-0.4402 0.3302,-0.4149 0.779,-0.6266 1.3378,-0.6266 0.6604,0 1.1938,0.2964 1.5917,0.8721 0.0423,0.0677 0.1016,0.1355 0.1693,0.2117 0.0678,0.0762 0.1355,0.1439 0.1948,0.2116 z m -13.9362,-0.3471 -4.064,-11.1421 0,11.3368 c 0.0424,-0.0677 0.1186,-0.1439 0.2202,-0.2455 0.3302,-0.6943 0.872,-1.0414 1.634,-1.0414 0.6266,0 1.143,0.2625 1.541,0.7959 0.4487,0.1947 0.6688,0.2963 0.6688,0.2963 z m -6.2992,1.3885 -5.334,-9.2032 1.3632,8.382 c 0.9398,0.6604 1.8626,0.9906 2.7516,0.9906 0.3472,0 0.7536,-0.0593 1.2192,-0.1694 z m 22.3944,0.1186 c 0.381,0.1185 0.8043,0.1778 1.27,0.1778 1.0075,0 1.9473,-0.3133 2.8278,-0.9398 l 1.3632,-8.5852 z m 1.4901,12.556 -0.7451,-2.8024 c -3.2427,-0.7112 -7.2051,-1.0668 -11.9041,-1.0668 -4.6482,0 -8.6106,0.3556 -11.8787,1.0668 L 12.3,40.7921 c 3.0734,-0.9313 7.2983,-1.3885 12.6746,-1.3885 5.2409,0 9.4488,0.4487 12.6238,1.3631 z M 14.5352,10.2529 c 1.0837,0 1.6341,-0.5419 1.6341,-1.6341 0,-1.0922 -0.5504,-1.6341 -1.6341,-1.6341 -1.1091,0 -1.6679,0.5419 -1.6679,1.6341 0,1.0922 0.5588,1.6341 1.6679,1.6341 z m 20.828,0 c 1.1091,0 1.6679,-0.5419 1.6679,-1.6341 0,-1.0922 -0.5588,-1.6341 -1.6679,-1.6341 -1.0837,0 -2.238753,0.5419 -2.238753,1.6341 0,1.0922 1.155053,1.6341 2.238753,1.6341 z M 5.3997,12.9876 c 1.1091,0 1.6679,-0.5503 1.6679,-1.6425 0,-1.1092 -0.5588,-1.6595 -1.6679,-1.6595 -1.0838,0 -1.6341,0.5503 -1.6341,1.6595 0,1.0922 0.5503,1.6425 1.6341,1.6425 z m 39.1414,0 c 1.0922,0 1.6425,-0.5503 1.6425,-1.6425 0,-1.1092 -0.5503,-1.6595 -1.6425,-1.6595 -1.1007,0 -1.976223,0.5503 -1.976223,1.6595 0,1.0922 0.875523,1.6425 1.976223,1.6425 z"
     sodipodi:nodetypes="cscsccssssscsccsccccscscscsccscccccsccccccscccccccscccccsccscccccsccscssssssssssssssssssss" /><circle
     style="opacity:0.98999999;fill:none;fill-opacity:1;stroke:#000000;stroke-width:1.71979165;stroke-linecap:round;stroke-linejoin:round;stroke-miterlimit:4;stroke-dasharray:none;stroke-dashoffset:0;stroke-opacity:1"
     id="path4147"
     cx="5.4055071"
     cy="11.265624"
     r="2.432894" /><circle
     r="2.432894"
     cy="8.5781403"
     cx="14.526664"
     id="circle4149"
     style="opacity:0.98999999;fill:none;fill-opacity:1;stroke:#000000;stroke-width:1.71979165;stroke-linecap:round;stroke-linejoin:round;stroke-miterlimit:4;stroke-dasharray:none;stroke-dashoffset:0;stroke-opacity:1" /><circle
     style="opacity:0.98999999;fill:none;fill-opacity:1;stroke:#000000;stroke-width:1.71979165;stroke-linecap:round;stroke-linejoin:round;stroke-miterlimit:4;stroke-dasharray:none;stroke-dashoffset:0;stroke-opacity:1"
     id="circle4151"
     cx="24.869404"
     cy="7.2751179"
     r="2.432894" /><circle
     r="2.432894"
     cy="11.265624"
     cx="-44.333302"
     id="circle4153"
     style="opacity:0.98999999;fill:none;fill-opacity:1;stroke:#000000;stroke-width:1.71979165;stroke-linecap:round;stroke-linejoin:round;stroke-miterlimit:4;stroke-dasharray:none;stroke-dashoffset:0;stroke-opacity:1"
     transform="scale(-1,1)" /><circle
     style="opacity:0.98999999;fill:none;fill-opacity:1;stroke:#000000;stroke-width:1.71979165;stroke-linecap:round;stroke-linejoin:round;stroke-miterlimit:4;stroke-dasharray:none;stroke-dashoffset:0;stroke-opacity:1"
     id="circle4155"
     cx="-35.212143"
     cy="8.5781403"
     r="2.432894"
     transform="scale(-1,1)" /></svg>