<?xml version="1.0" encoding="UTF-8" standalone="no"?>
<!-- Creator: CorelDRAW -->

<svg
   xmlns:dc="http://purl.org/dc/elements/1.1/"
   xmlns:cc="http://creativecommons.org/ns#"
   xmlns:rdf="http://www.w3.org/1999/02/22-rdf-syntax-ns#"
   xmlns:svg="http://www.w3.org/2000/svg"
   xmlns="http://www.w3.org/2000/svg"
   xmlns:xlink="http://www.w3.org/1999/xlink"
   xmlns:sodipodi="http://sodipodi.sourceforge.net/DTD/sodipodi-0.dtd"
   xmlns:inkscape="http://www.inkscape.org/namespaces/inkscape"
   xml:space="preserve"
   width="50mm"
   height="50mm"
   shape-rendering="geometricPrecision"
   text-rendering="geometricPrecision"
   image-rendering="optimizeQuality"
   fill-rule="evenodd"
   clip-rule="evenodd"
   viewBox="0 0 50 50"
   id="svg2"
   sodipodi:version="0.32"
   inkscape:version="0.91+devel r"
   sodipodi:docname="wr.svg"
   inkscape:output_extension="org.inkscape.output.svg.inkscape"
   sodipodi:modified="true"
   version="1.1"><metadata
     id="metadata13"><rdf:RDF><cc:Work
         rdf:about=""><dc:format>image/svg+xml</dc:format><dc:type
           rdf:resource="http://purl.org/dc/dcmitype/StillImage" /></cc:Work></rdf:RDF></metadata><defs
     id="defs11"><linearGradient
       inkscape:collect="always"
       id="linearGradient2165"><stop
         style="stop-color:#ffffff;stop-opacity:1;"
         offset="0"
         id="stop2167" /><stop
         style="stop-color:#b7b7b7;stop-opacity:1"
         offset="1"
         id="stop2169" /></linearGradient><linearGradient
       inkscape:collect="always"
       xlink:href="#linearGradient2165"
       id="linearGradient2171"
       x1="21.375923"
       y1="37.469288"
       x2="41.13176"
       y2="37.469288"
       gradientUnits="userSpaceOnUse" /></defs><sodipodi:namedview
     inkscape:window-height="1025"
     inkscape:window-width="1920"
     inkscape:pageshadow="2"
     inkscape:pageopacity="0.0"
     guidetolerance="10.0"
     gridtolerance="10.0"
     objecttolerance="10.0"
     borderopacity="1.0"
     bordercolor="#666666"
     pagecolor="#ffffff"
     id="base"
     inkscape:zoom="2.2972888"
     inkscape:cx="-16.721075"
     inkscape:cy="137.26969"
     inkscape:window-x="0"
     inkscape:window-y="27"
     inkscape:current-layer="svg2"
     showgrid="true"
     inkscape:window-maximized="1" /><path
     inkscape:connector-curvature="0"
     id="polygon6"
     d="m 28.4078,9.22 4.2164,0 0,-3.3951 6.7988,0 0,9.2964 -5.5034,4.2418 0,11.8618 4.2164,4.2164 0,5.08 3.7931,0 0,5.9266 -33.8582,0 0,-5.9266 3.7931,0 0,-5.08 4.2418,-4.2164 0,-11.8618 -5.5034,-4.2418 0,-9.2964 6.7734,0 0,3.3951 4.2418,0 0,-3.3951 6.7902,0 z"
     style="fill:#1f1a17" /><path
     inkscape:connector-curvature="0"
     style="fill:url(#linearGradient2171);fill-opacity:1"
     id="path8"
     d="m 33.073,17.6782 3.1496,-2.5569 -22.4198,0 3.175,2.5569 16.0952,0 z m 7.1966,24.5279 -30.5138,0 0,2.557 30.5138,0 0,-2.557 z m -3.8438,-5.0546 -22.8262,0 0,3.3698 22.8262,0 0,-3.3698 z m -4.2164,-17.7884 -14.3934,0 0,11.8618 14.3934,0 0,-11.8618 z m 5.5033,-5.9267 0,-5.9267 -3.3951,0 0,3.3952 -7.6454,0 0,-3.3952 -3.3444,0 0,3.3952 -7.62,0 0,-3.3952 -3.3951,0 0,5.9267 25.4,0 z m -1.9135,22.0049 -2.5484,-2.5316 -16.4508,0 -2.5992,2.5316 21.5984,0 z" /></svg>