<?xml version="1.0" encoding="UTF-8" standalone="no"?>
<!-- Creator: CorelDRAW -->

<svg
   xmlns:dc="http://purl.org/dc/elements/1.1/"
   xmlns:cc="http://creativecommons.org/ns#"
   xmlns:rdf="http://www.w3.org/1999/02/22-rdf-syntax-ns#"
   xmlns:svg="http://www.w3.org/2000/svg"
   xmlns="http://www.w3.org/2000/svg"
   xmlns:xlink="http://www.w3.org/1999/xlink"
   xmlns:sodipodi="http://sodipodi.sourceforge.net/DTD/sodipodi-0.dtd"
   xmlns:inkscape="http://www.inkscape.org/namespaces/inkscape"
   xml:space="preserve"
   width="50mm"
   height="50mm"
   shape-rendering="geometricPrecision"
   text-rendering="geometricPrecision"
   image-rendering="optimizeQuality"
   fill-rule="evenodd"
   clip-rule="evenodd"
   viewBox="0 0 50 50"
   id="svg2"
   sodipodi:version="0.32"
   inkscape:version="0.92.3 (2405546, 2018-03-11)"
   sodipodi:docname="bp.svg.2018_08_25_21_21_20.0.svg"
   inkscape:output_extension="org.inkscape.output.svg.inkscape"
   sodipodi:modified="true"
   version="1.1"><sodipodi:namedview
     inkscape:window-height="1385"
     inkscape:window-width="2560"
     inkscape:pageshadow="2"
     inkscape:pageopacity="0.0"
     guidetolerance="10.0"
     gridtolerance="10.0"
     objecttolerance="10.0"
     borderopacity="1.0"
     bordercolor="#666666"
     pagecolor="#ffffff"
     id="base"
     inkscape:zoom="0.81324945"
     inkscape:cx="-163.94172"
     inkscape:cy="137.92864"
     inkscape:window-x="0"
     inkscape:window-y="27"
     inkscape:current-layer="svg2"
     showgrid="true"
     inkscape:window-maximized="1"
     inkscape:snap-object-midpoints="false"
     inkscape:snap-bbox="true"
     inkscape:bbox-paths="true" /><metadata
     id="metadata13"><rdf:RDF><cc:Work
         rdf:about=""><dc:format>image/svg+xml</dc:format><dc:type
           rdf:resource="http://purl.org/dc/dcmitype/StillImage" /><dc:title /></cc:Work></rdf:RDF></metadata><defs
     id="defs11"><linearGradient
       id="linearGradient4223-166"
       inkscape:collect="always"><stop
         id="stop4157"
         offset="0"
         style="stop-color:#000000;stop-opacity:1" /><stop
         id="stop4159"
         offset="1"
         style="stop-color:#484848;stop-opacity:1" /></linearGradient><linearGradient
       y2="210.77223"
       x2="-6.7219477"
       y1="210.77223"
       x1="-26.698618"
       gradientTransform="matrix(-3.6480492,0,0,3.6467262,15.606481,-662.89463)"
       gradientUnits="userSpaceOnUse"
       id="linearGradient4147-75-3"
       xlink:href="#linearGradient4223-166"
       inkscape:collect="always" /><linearGradient
       y2="210.77223"
       x2="-6.7219477"
       y1="210.77223"
       x1="-26.698618"
       gradientTransform="matrix(-3.5738119,0,0,3.5727408,-24.023533,-668.62258)"
       gradientUnits="userSpaceOnUse"
       id="linearGradient4147-75-35"
       xlink:href="#linearGradient4223-166"
       inkscape:collect="always" /></defs><g
     style="clip-rule:evenodd;fill-rule:evenodd;image-rendering:optimizeQuality;shape-rendering:geometricPrecision;text-rendering:geometricPrecision"
     id="g4170"
     transform="translate(29.238507,-14.717759)" /><path
     style="clip-rule:evenodd;fill:url(#linearGradient4147-75-3);fill-opacity:1;fill-rule:evenodd;stroke:#000000;stroke-width:3.77952766;stroke-linecap:round;stroke-linejoin:round;stroke-miterlimit:4;stroke-dasharray:none;stroke-opacity:1;image-rendering:optimizeQuality;shape-rendering:geometricPrecision;text-rendering:geometricPrecision"
     d="M 94.488281 24.09375 A 17.246236 17.246236 0 0 0 77.242188 41.339844 A 17.246236 17.246236 0 0 0 86.119141 56.412109 L 82.291016 56.412109 C 76.570296 57.293854 71.71821 60.366233 67.755859 64.763672 C 63.524459 69.395007 61.421875 75.490681 61.421875 81.820312 C 61.421875 86.883776 62.782441 91.917699 65.53125 95.931641 C 68.218411 99.945246 71.708318 103.26801 75.970703 105.24414 C 66.02536 109.04186 57.872934 116.06228 51.541016 124.92383 C 45.209128 133.81601 42.058594 144.91474 42.058594 156.06055 C 42.130254 162.48993 43.305714 166.9448 45.578125 173.75391 L 45.669922 173.75391 L 143.30469 173.75391 L 143.39844 173.75391 C 145.40066 168.47112 146.78476 162.55323 146.91797 156.06055 C 146.91797 144.91474 143.76744 133.81601 137.43555 124.92383 C 131.10362 116.06228 122.94925 109.04186 113.00391 105.24414 C 117.26629 103.26801 120.75815 99.945246 123.44531 95.931641 C 126.19412 91.917699 127.55078 86.883776 127.55078 81.820312 C 127.55078 75.490681 125.45211 69.395007 121.2207 64.763672 C 117.25791 60.365734 112.4034 57.293556 106.68164 56.412109 L 102.82812 56.412109 A 17.246236 17.246236 0 0 0 111.73438 41.339844 A 17.246236 17.246236 0 0 0 94.488281 24.09375 z "
     transform="scale(0.26458333)"
     id="path4145-5" /><g
     style="clip-rule:evenodd;fill-rule:evenodd;image-rendering:optimizeQuality;shape-rendering:geometricPrecision;text-rendering:geometricPrecision"
     id="g4819"
     transform="translate(52.179517,0.024491)"><g
       id="Layer_x0020_1-1">
  <metadata
   id="CorelCorpID_0Corel-Layer-2" />
  
 </g></g></svg>