<?xml version="1.0" encoding="UTF-8" standalone="no"?>
<!-- Creator: CorelDRAW -->

<svg
   xmlns:dc="http://purl.org/dc/elements/1.1/"
   xmlns:cc="http://creativecommons.org/ns#"
   xmlns:rdf="http://www.w3.org/1999/02/22-rdf-syntax-ns#"
   xmlns:svg="http://www.w3.org/2000/svg"
   xmlns="http://www.w3.org/2000/svg"
   xmlns:xlink="http://www.w3.org/1999/xlink"
   xmlns:sodipodi="http://sodipodi.sourceforge.net/DTD/sodipodi-0.dtd"
   xmlns:inkscape="http://www.inkscape.org/namespaces/inkscape"
   xml:space="preserve"
   width="50mm"
   height="50mm"
   shape-rendering="geometricPrecision"
   text-rendering="geometricPrecision"
   image-rendering="optimizeQuality"
   fill-rule="evenodd"
   clip-rule="evenodd"
   viewBox="0 0 50 50"
   id="svg2"
   sodipodi:version="0.32"
   inkscape:version="0.92.3 (2405546, 2018-03-11)"
   sodipodi:docname="bq.svg"
   inkscape:output_extension="org.inkscape.output.svg.inkscape"
   sodipodi:modified="true"
   version="1.1"><sodipodi:namedview
     inkscape:window-height="1385"
     inkscape:window-width="2560"
     inkscape:pageshadow="2"
     inkscape:pageopacity="0.0"
     guidetolerance="10.0"
     gridtolerance="10.0"
     objecttolerance="10.0"
     borderopacity="1.0"
     bordercolor="#666666"
     pagecolor="#ffffff"
     id="base"
     inkscape:zoom="0.55247583"
     inkscape:cx="299.13791"
     inkscape:cy="161.74307"
     inkscape:window-x="0"
     inkscape:window-y="27"
     inkscape:current-layer="svg2"
     showgrid="true"
     inkscape:window-maximized="1"
     inkscape:object-nodes="true"
     inkscape:snap-global="true"
     showguides="true"
     inkscape:snap-smooth-nodes="true"
     inkscape:snap-object-midpoints="true"
     inkscape:guide-bbox="true"
     inkscape:snap-bbox="true"
     inkscape:bbox-paths="true"
     inkscape:object-paths="false"
     inkscape:snap-intersection-paths="false"
     inkscape:lockguides="true" /><metadata
     id="metadata23"><rdf:RDF><cc:Work
         rdf:about=""><dc:format>image/svg+xml</dc:format><dc:type
           rdf:resource="http://purl.org/dc/dcmitype/StillImage" /><dc:title /></cc:Work></rdf:RDF></metadata><defs
     id="defs21"><linearGradient
       id="linearGradient2175"
       inkscape:collect="always"><stop
         id="stop2177"
         offset="0"
         style="stop-color:#ffffff;stop-opacity:1;" /><stop
         id="stop2179"
         offset="1"
         style="stop-color:#b7b7b7;stop-opacity:1" /></linearGradient><linearGradient
       gradientUnits="userSpaceOnUse"
       y2="37.223587"
       x2="46.231258"
       y1="37.223587"
       x1="21.253071"
       id="linearGradient2181"
       xlink:href="#linearGradient2175"
       inkscape:collect="always" /><linearGradient
       id="linearGradient2175-737"
       inkscape:collect="always"><stop
         id="stop4164"
         offset="0"
         style="stop-color:#000000;stop-opacity:1;" /><stop
         id="stop4166"
         offset="1"
         style="stop-color:#484848;stop-opacity:1" /></linearGradient><linearGradient
       inkscape:collect="always"
       xlink:href="#linearGradient2175-737"
       id="linearGradient4204"
       x1="32.302597"
       y1="28.761234"
       x2="4.4237475"
       y2="28.761234"
       gradientUnits="userSpaceOnUse"
       gradientTransform="matrix(0.97239256,0,0,0.9724434,0.74080288,0.79156084)" /><linearGradient
       inkscape:collect="always"
       xlink:href="#linearGradient2175-737"
       id="linearGradient4169"
       gradientUnits="userSpaceOnUse"
       x1="33.606197"
       y1="9.0812492"
       x2="1.823096"
       y2="9.0812492"
       gradientTransform="translate(0.42169941,-0.42108131)" /><linearGradient
       inkscape:collect="always"
       xlink:href="#linearGradient2175"
       id="linearGradient8111"
       gradientUnits="userSpaceOnUse"
       x1="21.253071"
       y1="37.223587"
       x2="46.01284"
       y2="37.223587"
       gradientTransform="translate(0,-0.45528379)" /><linearGradient
       inkscape:collect="always"
       xlink:href="#linearGradient2175-737"
       id="linearGradient8116"
       gradientUnits="userSpaceOnUse"
       x1="32.921429"
       y1="9.0812492"
       x2="1.823096"
       y2="9.0812492"
       gradientTransform="translate(0.42169944,-0.4210813)" /><linearGradient
       inkscape:collect="always"
       xlink:href="#linearGradient2175-737"
       id="linearGradient8118"
       gradientUnits="userSpaceOnUse"
       x1="32.921429"
       y1="9.0812492"
       x2="1.8230962"
       y2="9.0812492"
       gradientTransform="translate(0.42169927,-0.4210813)" /><linearGradient
       inkscape:collect="always"
       xlink:href="#linearGradient2175-737"
       id="linearGradient8120"
       gradientUnits="userSpaceOnUse"
       x1="32.921429"
       y1="9.0812492"
       x2="1.823096"
       y2="9.0812492"
       gradientTransform="translate(0.42169937,-0.42108129)" /><linearGradient
       inkscape:collect="always"
       xlink:href="#linearGradient2175-737"
       id="linearGradient8122"
       gradientUnits="userSpaceOnUse"
       x1="32.921429"
       y1="9.0812492"
       x2="1.823096"
       y2="9.0812492"
       gradientTransform="translate(0.42169943,-0.4210813)" /><linearGradient
       inkscape:collect="always"
       xlink:href="#linearGradient2175"
       id="linearGradient4870-6"
       gradientUnits="userSpaceOnUse"
       gradientTransform="matrix(3.7795276,0,0,3.7795276,-0.39506681,-1.7755335)"
       x1="19.846802"
       y1="26.287243"
       x2="47.084885"
       y2="26.287243" /><linearGradient
       inkscape:collect="always"
       xlink:href="#linearGradient2175"
       id="linearGradient8111-9"
       gradientUnits="userSpaceOnUse"
       x1="21.253071"
       y1="37.223587"
       x2="46.01284"
       y2="37.223587"
       gradientTransform="matrix(3.7795276,0,0,3.7795276,-2.066884e-7,-1.7207549)" /><linearGradient
       inkscape:collect="always"
       xlink:href="#linearGradient2175"
       id="linearGradient8111-8"
       gradientUnits="userSpaceOnUse"
       x1="21.253071"
       y1="37.223587"
       x2="46.01284"
       y2="37.223587"
       gradientTransform="matrix(3.7795276,0,0,3.7795276,-9.41678e-7,-1.7207579)" /><linearGradient
       inkscape:collect="always"
       xlink:href="#linearGradient2175"
       id="linearGradient4917"
       gradientUnits="userSpaceOnUse"
       gradientTransform="matrix(1.0106134,0,0,1.0005357,-0.336246,1.0281272)"
       x1="21.253071"
       y1="37.223587"
       x2="46.01284"
       y2="37.223587" /><linearGradient
       inkscape:collect="always"
       xlink:href="#linearGradient2175"
       id="linearGradient4919"
       gradientUnits="userSpaceOnUse"
       gradientTransform="matrix(1.0106134,0,0,1.0005357,-0.336246,1.0281272)"
       x1="21.253071"
       y1="37.223587"
       x2="46.01284"
       y2="37.223587" /><linearGradient
       inkscape:collect="always"
       xlink:href="#linearGradient2175"
       id="linearGradient4921"
       gradientUnits="userSpaceOnUse"
       gradientTransform="matrix(1.0106134,0,0,1.0005357,-0.336246,1.0281272)"
       x1="21.253071"
       y1="37.223587"
       x2="46.01284"
       y2="37.223587" /><linearGradient
       inkscape:collect="always"
       xlink:href="#linearGradient2175"
       id="linearGradient4958"
       gradientUnits="userSpaceOnUse"
       gradientTransform="translate(0,-0.45528379)"
       x1="21.253071"
       y1="37.223587"
       x2="46.01284"
       y2="37.223587" /><linearGradient
       inkscape:collect="always"
       xlink:href="#linearGradient2175"
       id="linearGradient4968"
       gradientUnits="userSpaceOnUse"
       gradientTransform="matrix(1.0106134,0,0,1.0005357,-0.336246,1.0281272)"
       x1="21.253071"
       y1="37.223587"
       x2="46.01284"
       y2="37.223587" /><linearGradient
       inkscape:collect="always"
       xlink:href="#linearGradient2175"
       id="linearGradient4970"
       gradientUnits="userSpaceOnUse"
       gradientTransform="matrix(1.0106134,0,0,1.0005357,-0.336246,1.0281272)"
       x1="21.253071"
       y1="37.223587"
       x2="46.01284"
       y2="37.223587" /></defs><path
     sodipodi:nodetypes="cccccssczcssccccccc"
     inkscape:connector-curvature="0"
     id="path4159"
     d="M 21.542663,25.389824 14.656706,8.3183789 14.660004,25.667869 5.5355485,11.005863 8.8352057,30.009479 c 0,0 1.6777333,2.353474 2.1719933,3.690498 0.451038,1.220106 0.739706,2.540832 0.682017,3.838829 -0.08987,2.022175 -1.589004,5.865081 -1.589004,5.865081 3.172569,2.152309 8.943338,2.568272 15.031841,2.568272 6.088503,0 11.857202,-0.415993 15.029724,-2.568272 0,0 -1.499129,-3.842906 -1.589004,-5.865081 -0.05768,-1.297997 0.230979,-2.618723 0.682018,-3.838829 0.494261,-1.337025 2.171997,-3.690498 2.171997,-3.690498 L 44.463344,11.005863 35.602054,25.667868 35.342185,8.3183788 28.719396,25.389823 24.999446,7.0153566 Z"
     style="fill:url(#linearGradient4204);fill-opacity:1;stroke:#000000;stroke-width:1.00012171;stroke-miterlimit:4;stroke-dasharray:none;stroke-opacity:1" /><path
     style="fill:url(#linearGradient8111);fill-opacity:1"
     d="m 37.355658,34.634437 c -3.07186,-0.83865 -7.196073,-1.262276 -12.304319,-1.262276 -5.150996,0 -9.266719,0.406617 -12.406998,1.262276 l 0.376555,2.558167 c 3.157358,-0.813235 7.144632,-1.194439 12.030443,-1.194439 4.860141,0 8.873084,0.398113 11.927765,1.194439 z"
     id="path8109"
     inkscape:connector-curvature="0"
     sodipodi:nodetypes="csccscc" /><path
     style="fill:url(#linearGradient2181);fill-opacity:1"
     d="M 38.031556,42.996851 37.213973,40.04037 c -3.260037,-0.736995 -7.234075,-1.109694 -12.162634,-1.109694 -4.87722,0 -8.988197,0.372699 -12.265313,1.109694 l -0.817583,2.956481 c 3.174438,-0.957313 7.546857,-1.440171 13.082896,-1.440171 2.652557,0 5.099656,0.135572 7.367169,0.398213 2.276003,0.262541 4.149882,0.626836 5.613048,1.041958 z"
     id="path18"
     inkscape:connector-curvature="0"
     sodipodi:nodetypes="ccsccscc" /><path
     d="m 24.989513,9.8081231 c -0.77597,0 -1.440061,-0.2722956 -1.978401,-0.8168878 -0.538259,-0.5445923 -0.803879,-1.2078502 -0.803879,-1.9828466 0,-0.7680695 0.26562,-1.424318 0.803879,-1.9689103 0.53834,-0.5445921 1.202431,-0.8168883 1.978401,-0.8168883 0.762017,0 1.426109,0.2722962 1.978404,0.8168883 0.552212,0.5445923 0.82485,1.2008408 0.82485,1.9689103 0,0.7749964 -0.272638,1.4382543 -0.82485,1.9828466 -0.552295,0.5445922 -1.216387,0.8168878 -1.978404,0.8168878 z"
     id="path6"
     inkscape:connector-curvature="0"
     style="fill:url(#linearGradient4169);fill-opacity:1;stroke:#000000;stroke-width:1.00012171;stroke-miterlimit:4;stroke-dasharray:none;stroke-opacity:1" /><path
     d="m 14.671237,11.111145 c -0.782005,0 -1.445264,-0.26662 -1.989855,-0.806908 -0.544592,-0.5403676 -0.816889,-1.2069628 -0.816889,-1.9858578 0,-0.7648883 0.272297,-1.4244377 0.816889,-1.9717691 0.544591,-0.5473314 1.20785,-0.8209972 1.989855,-0.8209972 0.761061,0 1.417309,0.2736658 1.961902,0.8209972 0.544591,0.5473314 0.816887,1.2068808 0.816887,1.9717691 0,0.7788949 -0.272296,1.4454902 -0.816887,1.9858578 -0.544593,0.540288 -1.200841,0.806908 -1.961902,0.806908 z"
     id="path10"
     inkscape:connector-curvature="0"
     style="fill:url(#linearGradient8116);fill-opacity:1;stroke:#000000;stroke-width:1.00012171;stroke-miterlimit:4;stroke-dasharray:none;stroke-opacity:1" /><path
     d="m 35.328761,11.111145 c -0.774996,0 -1.431327,-0.26662 -1.968911,-0.806908 -0.537581,-0.5403679 -0.809878,-1.2069631 -0.809878,-1.9858581 0,-0.7648883 0.272297,-1.4244377 0.809878,-1.9717691 0.537584,-0.5473314 1.193915,-0.8209972 1.968911,-0.8209972 0.782006,0 1.445265,0.2736658 1.989856,0.8209972 0.544591,0.5473314 0.816888,1.2068808 0.816888,1.9717691 0,0.7788949 -0.272297,1.4454902 -0.816888,1.9858581 -0.544591,0.540288 -1.20785,0.806908 -1.989856,0.806908 z"
     id="path12"
     inkscape:connector-curvature="0"
     style="fill:url(#linearGradient8118);fill-opacity:1;stroke:#000000;stroke-width:1.00012171;stroke-miterlimit:4;stroke-dasharray:none;stroke-opacity:1" /><path
     d="m 5.522179,13.801129 c -0.774288,0 -1.4300188,-0.272535 -1.96711,-0.810674 -0.5371738,-0.538057 -0.809221,-1.194964 -0.809221,-1.977577 0,-0.76173 0.2720472,-1.4186377 0.809221,-1.9706428 0.5370912,-0.5591027 1.192822,-0.8316386 1.96711,-0.8316386 0.7812086,0 1.4369396,0.2725359 1.9880368,0.8316386 0.5440943,0.552005 0.8161415,1.2089128 0.8161415,1.9706428 0,0.782613 -0.2720472,1.43952 -0.8161415,1.977577 -0.5510972,0.538139 -1.2068282,0.810674 -1.9880368,0.810674 z"
     id="path14"
     inkscape:connector-curvature="0"
     style="fill:url(#linearGradient8120);fill-opacity:1;stroke:#000000;stroke-width:1.00012171;stroke-miterlimit:4;stroke-dasharray:none;stroke-opacity:1" /><path
     d="m 44.470901,13.801129 c -0.774289,0 -1.437022,-0.272536 -1.981117,-0.810674 -0.544094,-0.538058 -0.816141,-1.194965 -0.816141,-1.977577 0,-0.76173 0.272047,-1.4186379 0.816141,-1.9706428 0.544095,-0.5591028 1.206828,-0.8316386 1.981117,-0.8316386 0.767285,0 1.423015,0.2725358 1.96711,0.8316386 0.544094,0.5520049 0.816141,1.2089128 0.816141,1.9706428 0,0.782612 -0.272047,1.439519 -0.816141,1.977577 -0.544095,0.538138 -1.199825,0.810674 -1.96711,0.810674 z"
     id="path16"
     inkscape:connector-curvature="0"
     style="fill:url(#linearGradient8122);fill-opacity:1;stroke:#000000;stroke-width:1.00012171;stroke-miterlimit:4;stroke-dasharray:none;stroke-opacity:1" /><path
     style="color:#000000;font-style:normal;font-variant:normal;font-weight:normal;font-stretch:normal;font-size:medium;line-height:normal;font-family:sans-serif;font-variant-ligatures:normal;font-variant-position:normal;font-variant-caps:normal;font-variant-numeric:normal;font-variant-alternates:normal;font-feature-settings:normal;text-indent:0;text-align:start;text-decoration:none;text-decoration-line:none;text-decoration-style:solid;text-decoration-color:#000000;letter-spacing:normal;word-spacing:normal;text-transform:none;writing-mode:lr-tb;direction:ltr;text-orientation:mixed;dominant-baseline:auto;baseline-shift:baseline;text-anchor:start;white-space:normal;shape-padding:0;clip-rule:evenodd;display:inline;overflow:visible;visibility:visible;opacity:1;isolation:auto;mix-blend-mode:normal;color-interpolation:sRGB;color-interpolation-filters:linearRGB;solid-color:#000000;solid-opacity:1;vector-effect:none;fill:url(#linearGradient4958);fill-opacity:1;fill-rule:evenodd;stroke:none;stroke-width:1;stroke-linecap:butt;stroke-linejoin:miter;stroke-miterlimit:4;stroke-dasharray:none;stroke-dashoffset:0;stroke-opacity:1;color-rendering:auto;image-rendering:optimizeQuality;shape-rendering:geometricPrecision;text-rendering:geometricPrecision;enable-background:accumulate"
     d="m 24.955078,25.914062 a 0.84788736,0.84788736 0 0 0 -0.53125,0.22461 c -1.250403,1.157682 -2.088341,1.587537 -2.871094,1.621094 -0.782752,0.03356 -1.729202,-0.346101 -3.146484,-1.253907 a 0.84788736,0.84788736 0 0 0 -1.097656,0.158203 c -0.791802,0.908842 -1.701214,1.62615 -2.496094,1.90625 -0.79488,0.280101 -1.407749,0.242119 -2.158203,-0.43164 a 0.84788736,0.84788736 0 1 0 -1.132813,1.261719 c 1.15661,1.038406 2.623246,1.203743 3.855469,0.769531 1.025617,-0.361408 1.910515,-1.088556 2.712891,-1.914063 1.248027,0.741295 2.372404,1.249067 3.535156,1.199219 1.156724,-0.04959 2.232203,-0.685225 3.375,-1.638672 1.142797,0.953447 2.218276,1.589083 3.375,1.638672 1.162752,0.04985 2.287128,-0.457924 3.535156,-1.199219 0.802376,0.825507 1.687275,1.552655 2.712891,1.914063 1.232223,0.434212 2.698859,0.268875 3.855469,-0.769531 a 0.84788736,0.84788736 0 1 0 -1.132813,-1.261719 c -0.750454,0.673759 -1.363323,0.711741 -2.158203,0.43164 -0.79488,-0.2801 -1.704292,-0.997408 -2.496094,-1.90625 A 0.84788736,0.84788736 0 0 0 31.59375,26.505859 c -1.417282,0.907806 -2.363732,1.287463 -3.146484,1.253907 -0.782753,-0.03356 -1.62069,-0.463412 -2.871094,-1.621094 a 0.84788736,0.84788736 0 0 0 -0.621094,-0.22461 z"
     id="path821-9"
     inkscape:connector-curvature="0" /><path
     style="clip-rule:evenodd;vector-effect:none;fill:url(#linearGradient4917);fill-opacity:1;fill-rule:evenodd;stroke:none;stroke-width:1;stroke-linecap:butt;stroke-linejoin:miter;stroke-miterlimit:4;stroke-dasharray:none;stroke-dashoffset:0;stroke-opacity:1;image-rendering:optimizeQuality;shape-rendering:geometricPrecision;text-rendering:geometricPrecision"
     d="m 23.152093,27.762624 1.426083,-7.339985 c 0.0657,-0.33814 0.793126,-0.402125 0.86982,0 l 1.39991,7.339984 c -1.315918,-0.70671 -2.587091,-1.036886 -3.695813,10e-7 z"
     id="path8130"
     inkscape:connector-curvature="0"
     sodipodi:nodetypes="csscc" /><path
     sodipodi:nodetypes="csscsc"
     style="clip-rule:evenodd;vector-effect:none;fill:url(#linearGradient4919);fill-opacity:1;fill-rule:evenodd;stroke:none;stroke-width:1;stroke-linecap:butt;stroke-linejoin:miter;stroke-miterlimit:4;stroke-dasharray:none;stroke-dashoffset:0;stroke-opacity:1;image-rendering:optimizeQuality;shape-rendering:geometricPrecision;text-rendering:geometricPrecision"
     d="m 11.253773,28.947762 -0.853127,-5.567046 c -0.02903,-0.189393 0.325696,-0.651467 0.567725,-0.240057 l 3.361273,5.713587 c 0,0 -0.661712,0.473111 -0.931904,0.50619 -0.270192,0.03308 -2.143967,-0.412674 -2.143967,-0.412674 z"
     id="path8219"
     inkscape:connector-curvature="0" /><path
     sodipodi:nodetypes="cssccc"
     style="clip-rule:evenodd;vector-effect:none;fill:url(#linearGradient4921);fill-opacity:1;fill-rule:evenodd;stroke:none;stroke-width:1;stroke-linecap:butt;stroke-linejoin:miter;stroke-miterlimit:4;stroke-dasharray:none;stroke-dashoffset:0;stroke-opacity:1;image-rendering:optimizeQuality;shape-rendering:geometricPrecision;text-rendering:geometricPrecision"
     d="m 16.832061,27.454328 0.06606,-5.853729 c 0.0036,-0.321554 0.626317,-0.435894 0.744002,-0.127476 l 2.235343,5.858177 z"
     id="path8221"
     inkscape:connector-curvature="0" /><path
     inkscape:connector-curvature="0"
     id="path4962"
     d="m 38.746226,28.947762 0.853127,-5.567046 c 0.02903,-0.189393 -0.325696,-0.651467 -0.567725,-0.240057 l -3.361273,5.713587 c 0,0 0.661712,0.473111 0.931904,0.50619 0.270192,0.03308 2.143967,-0.412674 2.143967,-0.412674 z"
     style="clip-rule:evenodd;vector-effect:none;fill:url(#linearGradient4968);fill-opacity:1;fill-rule:evenodd;stroke:none;stroke-width:1;stroke-linecap:butt;stroke-linejoin:miter;stroke-miterlimit:4;stroke-dasharray:none;stroke-dashoffset:0;stroke-opacity:1;image-rendering:optimizeQuality;shape-rendering:geometricPrecision;text-rendering:geometricPrecision"
     sodipodi:nodetypes="csscsc" /><path
     inkscape:connector-curvature="0"
     id="path4964"
     d="m 33.167938,27.454328 -0.06606,-5.853729 c -0.0036,-0.321554 -0.626317,-0.435894 -0.744002,-0.127476 L 30.122533,27.3313 Z"
     style="clip-rule:evenodd;vector-effect:none;fill:url(#linearGradient4970);fill-opacity:1;fill-rule:evenodd;stroke:none;stroke-width:1;stroke-linecap:butt;stroke-linejoin:miter;stroke-miterlimit:4;stroke-dasharray:none;stroke-dashoffset:0;stroke-opacity:1;image-rendering:optimizeQuality;shape-rendering:geometricPrecision;text-rendering:geometricPrecision"
     sodipodi:nodetypes="cssccc" /></svg>