<?xml version="1.0" encoding="UTF-8" standalone="no"?>
<!-- Creator: CorelDRAW -->

<svg
   xml:space="preserve"
   width="50mm"
   height="50mm"
   shape-rendering="geometricPrecision"
   text-rendering="geometricPrecision"
   image-rendering="optimizeQuality"
   fill-rule="evenodd"
   clip-rule="evenodd"
   viewBox="0 0 50 50"
   id="svg2"
   sodipodi:version="0.32"
   inkscape:version="1.2.2 (1:1.2.2+202305151914+b0a8486541)"
   sodipodi:docname="wk.svg"
   inkscape:output_extension="org.inkscape.output.svg.inkscape"
   sodipodi:modified="true"
   version="1.1"
   xmlns:inkscape="http://www.inkscape.org/namespaces/inkscape"
   xmlns:sodipodi="http://sodipodi.sourceforge.net/DTD/sodipodi-0.dtd"
   xmlns:xlink="http://www.w3.org/1999/xlink"
   xmlns="http://www.w3.org/2000/svg"
   xmlns:svg="http://www.w3.org/2000/svg"
   xmlns:rdf="http://www.w3.org/1999/02/22-rdf-syntax-ns#"
   xmlns:cc="http://creativecommons.org/ns#"
   xmlns:dc="http://purl.org/dc/elements/1.1/"><metadata
     id="metadata15"><rdf:RDF><cc:Work
         rdf:about=""><dc:format>image/svg+xml</dc:format><dc:type
           rdf:resource="http://purl.org/dc/dcmitype/StillImage" /></cc:Work></rdf:RDF></metadata><defs
     id="defs13"><linearGradient
       inkscape:collect="always"
       id="linearGradient2167"><stop
         style="stop-color:#ffffff;stop-opacity:1;"
         offset="0"
         id="stop2169" /><stop
         style="stop-color:#b7b7b7;stop-opacity:1"
         offset="1"
         id="stop2171" /></linearGradient><linearGradient
       inkscape:collect="always"
       xlink:href="#linearGradient2167"
       id="linearGradient4155"
       gradientUnits="userSpaceOnUse"
       x1="20.700541"
       y1="23.422642"
       x2="45.393116"
       y2="23.422642"
       gradientTransform="translate(0.05080097,0)" /></defs><sodipodi:namedview
     inkscape:window-height="1239"
     inkscape:window-width="1595"
     inkscape:pageshadow="2"
     inkscape:pageopacity="0.0"
     guidetolerance="10.0"
     gridtolerance="10.0"
     objecttolerance="10.0"
     borderopacity="1.0"
     bordercolor="#666666"
     pagecolor="#ffffff"
     id="base"
     inkscape:zoom="1.1286299"
     inkscape:cx="-44.744515"
     inkscape:cy="137.77767"
     inkscape:window-x="705"
     inkscape:window-y="144"
     inkscape:current-layer="svg2"
     showgrid="true"
     inkscape:window-maximized="0"
     inkscape:showpageshadow="2"
     inkscape:pagecheckerboard="0"
     inkscape:deskcolor="#d1d1d1"
     inkscape:document-units="mm" /><path
     style="fill:#000000;fill-opacity:1;stroke-width:1"
     d="m 21.791178,13.47626 c -0.653971,0.629715 -1.138492,1.473728 -1.339454,2.499589 -0.210597,0.615685 -0.160991,1.2141 -0.06304,1.805574 -1.139901,-0.607088 -2.384382,-1.142263 -3.453018,-1.451074 -1.607445,-0.476678 -3.068953,-0.861785 -4.567164,-0.8754 -4.6140746,0.354171 -8.4808224,3.109095 -8.6790826,7.912694 -0.025612,0.532834 0.019685,1.067607 0.1235075,1.608171 0.010716,0.05948 0.019976,0.118711 0.032038,0.178283 0.00489,0.02248 0.010398,0.04519 0.015505,0.0677 0.5918332,2.265724 1.6877426,4.293165 3.5000432,5.727815 0.8828167,0.793827 1.8634366,1.51007 2.8008639,2.077395 l 0.433565,2.313554 0.427366,2.453595 -1.6422806,6.121074 c 0.8298026,0.745001 2.6839846,1.354497 5.5541846,1.837097 2.878598,0.4826 6.205852,0.719852 9.97355,0.719852 0.01138,0 0.02246,-2.64e-4 0.03359,-5.29e-4 0.01294,5e-6 0.02529,5.29e-4 0.03824,5.29e-4 0.0068,0 0.01347,8.8e-5 0.02016,0 0.0069,9e-5 0.01368,0 0.02066,0 0.01294,0 0.02532,-5.29e-4 0.03824,-5.29e-4 0.01111,1.51e-4 0.02222,5.29e-4 0.03359,5.29e-4 3.767702,0 7.094953,-0.237252 9.973551,-0.719852 2.8702,-0.4826 4.724384,-1.092096 5.554184,-1.837097 L 38.9777,37.794156 39.405063,35.340561 39.83863,33.027007 c 0.937424,-0.567325 1.918047,-1.283568 2.800861,-2.077395 1.745263,-1.454531 3.021624,-3.534169 3.500046,-5.727815 0.0051,-0.0225 0.01061,-0.04521 0.0155,-0.0677 0.01206,-0.05957 0.02133,-0.118798 0.03204,-0.178283 0.103807,-0.540564 0.149109,-1.075337 0.123505,-1.608171 -0.534585,-4.792984 -3.959616,-7.876818 -8.679079,-7.912694 -1.570045,0.02913 -3.271568,0.438824 -4.567163,0.8754 -1.068637,0.308812 -2.313118,0.843987 -3.453019,1.451074 0.15622,-0.631424 0.08598,-1.229773 -0.06304,-1.805574 -0.200933,-1.025715 -0.685107,-1.869903 -1.338937,-2.499589 -1.907286,-1.715938 -4.70317,-1.704366 -6.418212,0 z"
     id="path4162"
     inkscape:connector-curvature="0"
     sodipodi:nodetypes="cccccccccccccccscscscsccccccccccccccccc" /><path
     style="fill:#000000;fill-opacity:1"
     inkscape:connector-curvature="0"
     id="path6"
     d="m 25.859398,12.046768 c 0,0 -0.385338,-0.07787 -0.88055,-0.07787 -0.495212,0 -0.88055,0.07787 -0.88055,0.07787 l 0,-3.2511996 -2.0659,0 c -0.5588,0 -0.8382,-0.2709 -0.8382,-0.8212 l 0,-0.0254 c 0,-0.5419 0.2794,-0.8128 0.8382,-0.8128 l 2.0659,0 0,-2.1082 c 0,-0.5842 0.2963,-0.8721 0.889,-0.8721 l 0,0 c 0.5757,0 0.8721,0.2879 0.8721,0.8721 l 0,2.1082 2.1336,0 c 0.5418,0 0.8128,0.2709 0.8128,0.8128 l 0,0.0254 c 0,0.5503 -0.271,0.8212 -0.8128,0.8212 l -2.1167,0.0254 z"
     sodipodi:nodetypes="czccsssscsccscsssccc" /><path
     id="path4153"
     style="fill:url(#linearGradient4155);fill-opacity:1;stroke-width:1"
     d="M 25.043949 13.875122 C 23.59292 13.873619 22.143647 14.986288 22.019328 16.779338 C 22.019328 17.160336 22.08702 17.516256 22.222416 17.846456 C 22.432593 18.425986 22.666179 18.9915 22.908162 19.553328 C 23.604984 21.414168 24.451965 23.241406 24.997441 24.934395 C 24.998145 24.936595 24.999324 24.938913 25.000024 24.941113 L 25.000024 24.94163 L 25.000541 24.94163 C 25.001181 24.93923 25.001908 24.936795 25.002608 24.934395 C 25.548086 23.241406 26.395065 21.414168 27.091886 19.553328 C 27.333871 18.9915 27.567459 18.425986 27.777633 17.846456 C 27.913034 17.516256 27.980721 17.160336 27.980721 16.779338 C 27.606405 14.745198 26.32427 13.876448 25.043949 13.875122 z M 37.297982 17.229956 C 35.742861 17.247171 34.138558 17.625756 32.662089 18.193722 C 31.222789 18.77792 30.130671 19.421423 29.394071 20.132621 C 28.005576 21.521119 26.972487 23.307303 26.312089 25.483199 C 26.083486 26.262197 25.948312 26.973651 25.905912 27.608651 C 25.863612 28.243649 25.846484 28.895419 25.846484 29.555819 C 25.878524 29.556203 25.909599 29.556869 25.941569 29.557369 L 24.057963 29.557369 C 24.089943 29.556953 24.13592 28.243649 24.09362 27.608651 C 24.05122 26.973651 23.916043 26.262197 23.687443 25.483199 C 23.027045 23.307303 21.993956 21.521119 20.605461 20.132621 C 19.868861 19.421423 18.776742 18.77792 17.337443 18.193722 C 15.739114 17.615899 13.97915 17.219853 12.300541 17.250627 C 10.14233 17.290192 8.1185887 18.035182 6.7458415 20.005497 C 6.0346429 20.996095 5.6787231 22.24037 5.6787231 23.722066 C 5.6787231 23.726466 5.6792346 23.730565 5.6792399 23.734985 C 5.6792346 23.739385 5.6787231 23.743484 5.6787231 23.747904 C 5.7322151 27.434671 8.206419 29.268803 10.784355 31.24047 L 11.952759 32.553052 L 12.570809 36.201925 C 12.576009 36.200625 12.581599 36.199607 12.586829 36.198307 L 12.59613 36.253084 C 15.716299 35.462614 19.849546 35.065167 24.999508 35.059875 C 30.149711 35.065175 34.283126 35.462588 37.403402 36.253084 L 37.412703 36.198307 C 37.417903 36.199607 37.423493 36.200625 37.428723 36.201925 L 38.046773 32.553052 L 39.215177 31.24047 C 41.870111 29.369109 44.280895 27.082479 44.320809 23.747904 C 44.320809 23.743504 44.320297 23.739405 44.320292 23.734985 C 44.320297 23.730585 44.320809 23.726486 44.320809 23.722066 C 44.320809 22.24037 43.964891 20.996095 43.253691 20.005497 C 41.739168 17.95136 39.57085 17.204795 37.297982 17.229956 z M 24.999508 36.726957 C 24.396258 36.726957 23.805129 36.73266 23.225972 36.74401 C 19.171894 36.82364 15.708609 37.182224 12.841593 37.819397 L 12.414746 39.467875 L 12.079883 40.689506 C 13.844472 40.173819 15.969104 39.800969 18.455721 39.572262 C 18.495941 39.568562 18.536232 39.56496 18.576644 39.56141 C 20.501894 39.388751 22.642357 39.302125 24.999508 39.301477 C 27.356865 39.302112 29.497493 39.388738 31.422888 39.56141 C 31.463298 39.56501 31.503588 39.568612 31.543811 39.572262 C 34.03043 39.800969 36.155057 40.173819 37.919649 40.689506 L 37.584786 39.467875 L 37.157939 37.819397 C 34.290926 37.182224 30.827638 36.823639 26.77356 36.74401 C 26.77156 36.743971 26.769358 36.74405 26.767358 36.74401 C 26.190055 36.73264 25.600644 36.726957 24.999508 36.726957 z M 24.898222 41.062093 C 19.132434 41.062093 14.645037 41.713996 11.453048 43.000993 C 11.481718 43.012833 11.514301 43.023876 11.543481 43.035616 C 11.530561 43.041116 11.516561 43.046086 11.503691 43.051636 C 14.337674 44.171957 18.683395 44.753674 24.539071 44.784347 C 24.684479 44.785162 24.827448 44.787447 24.974186 44.787447 L 24.999508 44.787447 L 25.025346 44.787447 C 25.172087 44.787447 25.315056 44.785147 25.460461 44.784347 C 31.31614 44.753677 35.661861 44.171957 38.495841 43.051636 C 38.482971 43.046036 38.468971 43.041146 38.456051 43.035616 C 38.485231 43.023876 38.517814 43.012823 38.546484 43.000993 C 35.354495 41.713996 30.867098 41.062093 25.10131 41.062093 C 25.06686 41.062093 25.033869 41.062565 24.999508 41.06261 C 24.965318 41.062567 24.9325 41.062093 24.898222 41.062093 z " /><path
     style="fill:none;fill-rule:evenodd;stroke:#000000;stroke-width:2;stroke-linecap:butt;stroke-linejoin:miter;stroke-dasharray:none;stroke-opacity:1"
     d="m 12.880682,29.181682 c -4.2189633,-2.446832 -6.8466011,-8.686101 0.690382,-9.139665 3.880785,-0.186555 7.593829,3.463418 7.681979,8.237593 -2.83344,-0.05973 -5.589566,0.454177 -8.372361,0.902072 z"
     id="path705"
     sodipodi:nodetypes="cccc" /><path
     id="rect2657"
     style="overflow:visible;opacity:1;vector-effect:none;stroke-width:2.00001;stop-color:#000000;stop-opacity:1"
     d="m 24.880652,15.791284 c -0.844563,0 -1.258321,0.438962 -1.258321,1.308964 0,0.169012 0.02551,0.321306 0.0677,0.473356 0.05067,0.160432 0.118406,0.337914 0.186035,0.532268 0.07601,0.185771 0.185518,0.455786 0.185518,0.455786 l 0.938444,2.132686 0.938444,-2.132686 c 0,0 0.109509,-0.270015 0.185519,-0.455786 0.06763,-0.194354 0.135365,-0.371836 0.186035,-0.532268 0.04219,-0.15205 0.0677,-0.304344 0.0677,-0.473356 0,-0.870002 -0.413758,-1.308964 -1.258321,-1.308964 -0.04081,0 -0.08049,0.0012 -0.119373,0.0031 -0.03896,-0.0019 -0.07848,-0.0031 -0.119372,-0.0031 z m -1.258321,5.156275 v 0.001 h 5.16e-4 c -1.65e-4,-3.11e-4 -3.5e-4,-6.89e-4 -5.16e-4,-0.001 z m 2.755387,0 c -1.66e-4,3.44e-4 -3.52e-4,7.22e-4 -5.17e-4,0.001 h 5.17e-4 z"
     sodipodi:nodetypes="cscccccccsscsccccccccc" /><path
     style="fill:none;fill-rule:evenodd;stroke:#000000;stroke-width:2;stroke-linecap:butt;stroke-linejoin:miter;stroke-dasharray:none;stroke-opacity:1"
     d="m 37.004032,29.152301 c 4.218963,-2.446832 6.846601,-8.686101 -0.690382,-9.139665 -3.880785,-0.186555 -7.593829,3.463418 -7.681979,8.237593 2.83344,-0.05973 5.589566,0.454177 8.372361,0.902072 z"
     id="path2572"
     sodipodi:nodetypes="cccc" /></svg>
