<?xml version="1.0" encoding="UTF-8" standalone="no"?>
<!-- Creator: CorelDRAW -->

<svg
   xmlns:dc="http://purl.org/dc/elements/1.1/"
   xmlns:cc="http://creativecommons.org/ns#"
   xmlns:rdf="http://www.w3.org/1999/02/22-rdf-syntax-ns#"
   xmlns:svg="http://www.w3.org/2000/svg"
   xmlns="http://www.w3.org/2000/svg"
   xmlns:xlink="http://www.w3.org/1999/xlink"
   xmlns:sodipodi="http://sodipodi.sourceforge.net/DTD/sodipodi-0.dtd"
   xmlns:inkscape="http://www.inkscape.org/namespaces/inkscape"
   xml:space="preserve"
   width="50mm"
   height="50mm"
   shape-rendering="geometricPrecision"
   text-rendering="geometricPrecision"
   image-rendering="optimizeQuality"
   fill-rule="evenodd"
   clip-rule="evenodd"
   viewBox="0 0 50 50"
   id="svg2"
   sodipodi:version="0.32"
   inkscape:version="0.92.5 (2060ec1f9f, 2020-04-08)"
   sodipodi:docname="wp.svg"
   inkscape:output_extension="org.inkscape.output.svg.inkscape"
   sodipodi:modified="true"
   version="1.1"><metadata
     id="metadata13"><rdf:RDF><cc:Work
         rdf:about=""><dc:format>image/svg+xml</dc:format><dc:type
           rdf:resource="http://purl.org/dc/dcmitype/StillImage" /></cc:Work></rdf:RDF></metadata><defs
     id="defs11"><linearGradient
   inkscape:collect="always"
   id="linearGradient4223"><stop
     style="stop-color:#ffffff;stop-opacity:1"
     offset="0"
     id="stop4225" /><stop
     style="stop-color:#b7b7b7;stop-opacity:1"
     offset="1"
     id="stop4227" /></linearGradient><linearGradient
   inkscape:collect="always"
   id="linearGradient4223-166"><stop
     style="stop-color:#000000;stop-opacity:1"
     offset="0"
     id="stop4157" /><stop
     style="stop-color:#484848;stop-opacity:1"
     offset="1"
     id="stop4159" /></linearGradient><linearGradient
   inkscape:collect="always"
   xlink:href="#linearGradient4223-166"
   id="linearGradient4147-75-35"
   gradientUnits="userSpaceOnUse"
   gradientTransform="matrix(-3.5738119,0,0,3.5727408,-24.023533,-668.62258)"
   x1="-26.698618"
   y1="210.77223"
   x2="-6.7219477"
   y2="210.77223" /><linearGradient
   inkscape:collect="always"
   xlink:href="#linearGradient4223"
   id="linearGradient4147-3"
   gradientUnits="userSpaceOnUse"
   gradientTransform="matrix(3.4765455,0,0,3.4765453,128.42607,-647.95293)"
   x1="-26.698618"
   y1="210.77223"
   x2="-6.5282454"
   y2="210.77223" />
  
  
 
  
  
 
  
  
 
  
  
 <linearGradient
   inkscape:collect="always"
   xlink:href="#linearGradient4223"
   id="linearGradient4147-9-6"
   gradientUnits="userSpaceOnUse"
   gradientTransform="matrix(3.5507954,0,0,3.4765453,131.09797,-647.45687)"
   x1="-26.698618"
   y1="210.77223"
   x2="-6.5282454"
   y2="210.77223" /><linearGradient
   inkscape:collect="always"
   xlink:href="#linearGradient4223"
   id="linearGradient1093"
   gradientUnits="userSpaceOnUse"
   gradientTransform="matrix(0.93948127,0,0,0.91983593,45.314192,-115.40145)"
   x1="31.633747"
   y1="245.33669"
   x2="109.6912"
   y2="245.33669" /></defs><sodipodi:namedview
     inkscape:window-height="1376"
     inkscape:window-width="2488"
     inkscape:pageshadow="2"
     inkscape:pageopacity="0.0"
     guidetolerance="10.0"
     gridtolerance="10.0"
     objecttolerance="10.0"
     borderopacity="1.0"
     bordercolor="#666666"
     pagecolor="#ffffff"
     id="base"
     inkscape:zoom="0.4289217"
     inkscape:cx="54.853978"
     inkscape:cy="348.22747"
     inkscape:window-x="72"
     inkscape:window-y="27"
     inkscape:current-layer="svg2"
     showgrid="true"
     inkscape:window-maximized="1"
     inkscape:snap-object-midpoints="false"
     showguides="false" /><path
     style="clip-rule:evenodd;fill:url(#linearGradient1093);fill-opacity:1;fill-rule:evenodd;stroke:#000000;stroke-width:6.60099954;stroke-linecap:round;stroke-linejoin:round;stroke-miterlimit:4;stroke-dasharray:none;stroke-opacity:1;image-rendering:optimizeQuality;shape-rendering:geometricPrecision;text-rendering:geometricPrecision;font-variant-east_asian:normal;opacity:1;vector-effect:none;stroke-dashoffset:0"
     d="M 94.488281 25.505859 C 85.742231 25.505621 78.652102 32.646531 78.652344 41.392578 C 78.653092 43.112641 78.931612 44.979382 79.451172 46.550781 C 79.970713 48.12218 80.731936 49.593317 81.697266 50.916016 C 83.224369 53.004356 85.394817 54.634328 86.947266 55.820312 C 86.834902 55.992492 86.335256 56.108037 85.779297 56.208984 A 17.246236 17.246236 0 0 0 86.119141 56.412109 L 84.603516 56.412109 C 84.132946 56.487907 83.723174 56.564078 83.623047 56.660156 C 77.61206 57.342833 72.560325 60.40672 68.472656 64.886719 C 64.355137 69.337271 62.314453 75.860799 62.314453 81.943359 C 62.314453 86.809169 63.635719 92.197426 66.310547 96.054688 C 68.925398 99.911615 72.321093 103.4682 76.46875 105.36719 C 66.79105 109.01666 58.856831 116.53123 52.695312 125.04688 C 46.533822 133.59195 43.46875 145.47284 43.46875 156.18359 C 43.598388 162.42282 44.944258 167.26523 46.892578 172.3418 L 46.984375 172.3418 L 141.99219 172.3418 L 142.08203 172.3418 C 142.63484 170.70597 143.12182 169.26462 143.54102 167.92578 C 144.79859 163.90927 145.45358 160.81739 145.50586 156.18359 C 145.50586 145.47284 142.43884 133.59195 136.27734 125.04688 C 130.11583 116.53123 122.1855 109.01666 112.50781 105.36719 C 116.65548 103.4682 120.04921 99.911615 122.66406 96.054688 C 125.33889 92.197426 126.66211 86.809169 126.66211 81.943359 C 126.66211 75.860799 124.61947 69.337271 120.50195 64.886719 C 116.41428 60.40672 111.36256 57.342833 105.35156 56.660156 C 104.99326 56.587357 104.60093 56.498245 104.21484 56.412109 L 102.82617 56.412109 A 17.246236 17.246236 0 0 0 103.2168 56.169922 C 102.82851 56.063551 102.45304 55.950707 102.13281 55.820312 C 103.81346 54.309651 105.87809 52.791303 107.26172 50.925781 C 108.2308 49.60286 108.9952 48.129691 109.51758 46.556641 C 110.03998 44.98359 110.32009 43.1154 110.32227 41.392578 C 110.3225 32.647291 103.23357 25.506698 94.488281 25.505859 z "
     id="path4145-5"
     transform="scale(0.26458333)" /><g
     style="clip-rule:evenodd;fill-rule:evenodd;image-rendering:optimizeQuality;shape-rendering:geometricPrecision;text-rendering:geometricPrecision"
     id="g4170"
     transform="translate(69.114395,-14.65213)" /><g
     style="clip-rule:evenodd;fill-rule:evenodd;image-rendering:optimizeQuality;shape-rendering:geometricPrecision;text-rendering:geometricPrecision"
     id="g4819"
     transform="translate(92.055405,0.09011997)"><g
       id="Layer_x0020_1-1">
  <metadata
   id="CorelCorpID_0Corel-Layer-2" />
  
 </g></g></svg>